<svg width="226" height="50" viewBox="0 0 226 50" fill="none" xmlns="http://www.w3.org/2000/svg">
<path d="M9.71407 14.781C9.68974 14.7324 9.68365 14.708 9.67757 14.702C8.51577 13.9903 7.97441 12.8832 7.70677 11.6059C7.49996 10.6144 7.46954 9.61681 7.5912 8.61316C7.61553 8.43067 7.67636 8.30902 7.84667 8.22386C9.59241 7.34795 11.4233 6.70318 13.3272 6.26522C13.3698 6.25306 13.4184 6.26522 13.5097 6.26522C13.5097 6.44771 13.5036 6.6241 13.5097 6.80659C13.534 7.65817 13.5462 8.50975 13.5827 9.35525C13.5948 9.61072 13.6678 9.8662 13.7469 10.1095C14.0632 11.1192 14.6532 11.5937 15.7116 11.6424C16.77 11.6971 17.7615 11.4355 18.6678 10.8759C19.4099 10.4197 19.8175 9.75671 19.8053 8.87471C19.7992 8.01097 19.7749 7.14114 19.7566 6.27739C19.7506 5.9915 19.7323 5.70561 19.7141 5.37715C21.8491 4.8297 23.9598 4.87836 26.1131 5.37106C26.0888 5.62654 26.0705 5.84552 26.0462 6.07058C25.9489 7.15938 25.8941 8.25428 26.0644 9.34308C26.1496 9.88445 26.4111 10.3224 26.8369 10.6387C27.9805 11.4842 29.2579 11.8005 30.6691 11.5511C31.1618 11.466 31.5267 11.1861 31.7761 10.7482C32.0559 10.2616 32.2019 9.73846 32.2384 9.19102C32.2931 8.3881 32.3053 7.58518 32.3296 6.77617C32.3357 6.61194 32.3296 6.44771 32.3296 6.24698C32.4817 6.26522 32.5973 6.26522 32.7129 6.29564C34.4708 6.73359 36.1739 7.34187 37.798 8.15087C38.0231 8.26644 38.1326 8.39418 38.163 8.66182C38.2603 9.59247 38.236 10.511 38.0656 11.4295C37.8163 12.7737 37.3053 13.9599 36.034 14.7141C36.0888 14.7993 36.1192 14.8844 36.1739 14.9392C37.0194 15.8455 37.579 16.9222 37.9318 18.1022C38.5158 20.0426 38.9172 22.0195 39.1545 24.0329C39.3917 26.0645 39.3674 28.0961 39.1727 30.1338C39.0936 30.9368 39.0571 31.7397 38.9659 32.5426C38.9051 33.0718 38.8199 33.601 38.68 34.1119C38.2664 35.6387 37.8345 37.1594 37.0681 38.5584C35.8333 40.809 34.0146 42.3905 31.5693 43.2178C30.2068 43.6801 28.8077 43.9355 27.3783 44.0389C24.8418 44.2153 22.2992 44.1545 19.7627 44.0937C17.8406 44.045 15.9489 43.7652 14.1362 43.084C11.2408 41.9952 9.25178 39.9757 8.05348 37.1472C7.21407 35.1643 6.78828 33.09 6.69095 30.9489C6.63013 29.5803 6.54497 28.2178 6.52672 26.8492C6.49631 23.8321 6.98901 20.8881 7.871 18.0049C8.22988 16.8431 8.78949 15.7908 9.64108 14.9027C9.65932 14.8723 9.68365 14.8297 9.71407 14.781ZM22.8771 39.5134C24.1849 39.483 25.5231 39.4587 26.8552 39.4222C27.8771 39.3978 28.8807 39.2336 29.8661 38.9599C31.0948 38.6192 32.0438 37.9319 32.6581 36.7823C33.1508 35.8577 33.4671 34.8844 33.6922 33.8747C34.0267 32.3723 34.1484 30.8394 34.191 29.3066C34.2639 26.6789 34.2883 24.045 33.8686 21.4355C33.6861 20.292 33.3759 19.1849 32.8953 18.1265C32.2019 16.5937 31.0401 15.6934 29.3978 15.365C28.4549 15.1764 27.506 15.0365 26.5511 15.0304C24.118 15.0122 21.6849 15.0061 19.2579 15.0304C18.163 15.0426 17.0742 15.1764 16.0158 15.4684C14.8844 15.7786 13.899 16.3261 13.2725 17.3601C13.0048 17.7981 12.7858 18.2725 12.6034 18.7531C11.989 20.3771 11.77 22.0803 11.697 23.8017C11.5815 26.5633 11.5571 29.3309 11.8552 32.0925C11.9951 33.3759 12.2445 34.6411 12.6581 35.8699C13.242 37.5973 14.4403 38.6071 16.1861 39.0329C17.135 39.264 18.09 39.41 19.0693 39.4343C20.3223 39.4526 21.5875 39.483 22.8771 39.5134Z" fill="white"/>
<path d="M61.2286 11.1616C63.0291 11.1616 64.7383 11.1616 66.478 11.1616C66.478 20.1215 66.478 29.0631 66.478 37.9986C66.1678 38.102 62.0193 38.1385 61.2468 38.0351C61.2286 37.4937 61.2408 36.9341 61.2408 36.3806C61.2408 35.8027 61.2408 35.2249 61.2408 34.647C61.2408 34.0813 61.2408 33.5217 61.2408 32.956C61.2408 32.3903 61.2408 31.8307 61.2408 31.265C61.2408 30.6993 61.2408 30.1397 61.2408 29.574C61.2408 28.9962 61.2408 28.4183 61.2408 27.8405C61.2408 27.2808 61.2408 26.7151 61.2408 26.186C61.1982 26.1434 61.186 26.1312 61.1738 26.1251C61.1617 26.113 61.1495 26.1008 61.1374 26.0947C61.0948 26.0825 61.0461 26.0704 61.0035 26.0704C57.4756 26.0704 53.9476 26.0643 50.4196 26.0643C50.3466 26.0643 50.2675 26.0704 50.1945 26.0825C50.1702 26.0886 50.1459 26.113 50.0607 26.1616C50.0607 30.0911 50.0607 34.0509 50.0607 38.0412C48.2967 38.0412 46.5875 38.0412 44.8782 38.0412C44.7748 37.7127 44.7383 11.776 44.8478 11.1616C46.551 11.1616 48.2663 11.1616 50.0364 11.1616C50.0485 11.3319 50.0668 11.5083 50.0668 11.6847C50.0668 14.7443 50.0668 17.7979 50.0668 20.8575C50.0668 21.0339 50.0668 21.2164 50.0668 21.4171C53.8077 21.4171 57.4938 21.4171 61.2286 21.4171C61.2286 17.9986 61.2286 14.5984 61.2286 11.1616Z" fill="white"/>
<path d="M121.928 20.2735C121.928 19.5071 121.928 18.7407 121.928 17.9134C123.485 17.8526 124.994 17.9195 126.527 17.9378C126.527 26.4779 126.527 34.9755 126.527 43.467C126.216 43.5704 122.403 43.613 121.734 43.5035C121.721 43.3392 121.703 43.1628 121.703 42.9864C121.703 40.7358 121.703 38.4852 121.703 36.2346C121.703 36.0582 121.691 35.8818 121.685 35.7054C121.654 35.6932 121.624 35.6811 121.594 35.6689C121.478 35.7966 121.356 35.9244 121.241 36.0521C120.055 37.3538 118.631 38.2358 116.873 38.4852C113.802 38.9232 111.265 37.9803 109.361 35.4925C108.254 34.0509 107.658 32.3782 107.36 30.602C106.983 28.3392 107.08 26.0886 107.701 23.8745C108.169 22.2018 108.966 20.7176 110.255 19.5314C111.478 18.4061 112.938 17.7675 114.562 17.5059C115.651 17.3295 116.74 17.2808 117.828 17.5241C119.361 17.8648 120.56 18.7346 121.539 19.939C121.642 20.0606 121.746 20.1823 121.849 20.2979C121.873 20.2979 121.904 20.2857 121.928 20.2735ZM121.819 27.9986C121.819 27.7127 121.831 27.4207 121.819 27.1348C121.764 26.0339 121.563 24.9633 121.119 23.9475C120.225 21.9159 118.729 21.2529 116.873 21.2468C116.016 21.2468 115.231 21.5022 114.538 22.0314C113.887 22.5302 113.37 23.1324 112.974 23.8502C112.372 24.9329 112.08 26.1069 112.007 27.3356C111.91 29.0327 112.129 30.675 112.944 32.1957C114.24 34.6166 117.238 35.4317 119.525 33.9901C120.499 33.3757 121.052 32.4451 121.393 31.3745C121.74 30.2735 121.892 29.1482 121.819 27.9986Z" fill="white"/>
<path d="M204.021 23.4063C202.409 23.4063 200.833 23.4063 199.227 23.4063C199.294 22.5608 199.501 21.7944 199.842 21.0644C200.547 19.5681 201.733 18.607 203.272 18.0413C204.799 17.4817 206.381 17.3661 207.986 17.3965C209.367 17.4209 210.712 17.6399 211.989 18.1812C213.187 18.6922 214.215 19.4221 214.903 20.5656C215.34 21.2956 215.566 22.0924 215.614 22.944C215.632 23.2603 215.626 23.5827 215.626 23.899C215.626 27.7007 215.62 31.5024 215.62 35.3041C215.62 35.9123 215.62 36.5389 215.912 37.0863C216.07 37.3783 216.113 37.6459 216.083 37.9501C216.083 37.9805 216.058 38.0048 216.04 38.0595C214.538 38.0595 213.023 38.0595 211.46 38.0595C211.381 37.4878 211.295 36.9099 211.204 36.2591C211.064 36.3685 210.973 36.4294 210.894 36.5084C209.653 37.8041 208.108 38.4123 206.35 38.5644C205.188 38.6678 204.039 38.6435 202.907 38.3637C201.143 37.9257 199.671 37.0559 198.777 35.4014C198.084 34.1179 197.993 32.7372 198.205 31.3199C198.406 30.0243 198.972 28.9294 200 28.09C200.596 27.6033 201.265 27.2505 201.983 26.9951C203.09 26.5936 204.24 26.3929 205.407 26.2651C206.642 26.1313 207.889 26.034 209.1 25.7116C209.507 25.6021 209.909 25.444 210.286 25.2554C210.736 25.0304 211.01 24.6471 211.046 24.1362C211.137 22.9744 210.772 22.1107 209.757 21.6545C208.449 21.0644 207.098 20.9245 205.712 21.3017C204.781 21.5571 204.185 22.1472 204.063 23.1447C204.057 23.2177 204.039 23.2907 204.021 23.4063ZM210.791 28.1569C210.651 28.2177 210.572 28.2481 210.493 28.2907C209.769 28.7043 208.99 28.9415 208.175 29.0754C207.561 29.1788 206.94 29.2518 206.326 29.3491C205.59 29.4647 204.86 29.6228 204.203 29.9999C203.242 30.5474 202.822 31.3807 202.938 32.4756C203.047 33.4975 203.722 34.051 204.623 34.3673C204.976 34.489 205.359 34.5741 205.73 34.6228C206.971 34.781 208.157 34.6106 209.246 33.9598C210.134 33.4245 210.718 32.652 210.778 31.6119C210.839 30.4805 210.791 29.3552 210.791 28.1569Z" fill="white"/>
<path d="M151.673 23.394C150.122 23.394 148.546 23.394 146.947 23.394C146.886 22.883 147.044 22.4207 147.178 21.9645C147.756 20.012 149.045 18.7407 150.937 18.0412C152.464 17.4755 154.045 17.366 155.651 17.3903C156.709 17.4086 157.743 17.5485 158.741 17.8891C159.897 18.2845 160.906 18.911 161.727 19.8295C162.494 20.6932 162.871 21.7151 162.962 22.8526C162.974 23.0351 162.974 23.2176 162.974 23.4001C162.974 27.3538 162.968 31.3076 162.974 35.2614C162.974 35.6568 163.011 36.0521 163.066 36.4414C163.102 36.6787 163.163 36.9281 163.291 37.1288C163.485 37.4329 163.437 37.7249 163.418 38.0655C161.873 38.0655 160.359 38.0655 158.802 38.0655C158.717 37.4816 158.637 36.9037 158.546 36.265C158.425 36.3502 158.345 36.3928 158.291 36.4475C157.117 37.7127 155.645 38.3636 153.954 38.5339C152.494 38.6799 151.034 38.6616 149.623 38.1872C147.731 37.5485 146.302 36.3928 145.73 34.4159C145.225 32.6884 145.341 30.9791 146.241 29.3855C146.928 28.175 148.041 27.4816 149.313 27.0071C150.401 26.5996 151.539 26.4049 152.689 26.2711C153.942 26.1312 155.201 26.04 156.423 25.7176C156.8 25.6203 157.178 25.4804 157.536 25.3161C158.126 25.0363 158.412 24.5436 158.412 23.8867C158.418 22.8952 158.06 22.1166 157.135 21.6482C155.845 20.9913 154.507 20.9305 153.157 21.3806C152.305 21.6665 151.807 22.2808 151.734 23.2054C151.728 23.248 151.721 23.2967 151.709 23.3392C151.715 23.3453 151.703 23.3514 151.673 23.394ZM158.139 28.1385C157.999 28.2054 157.914 28.2297 157.841 28.2784C157.117 28.692 156.338 28.9293 155.523 29.0631C154.909 29.1604 154.288 29.2395 153.674 29.3368C152.889 29.4645 152.117 29.6288 151.436 30.0607C150.541 30.6203 150.183 31.4353 150.292 32.4694C150.395 33.4062 150.985 33.9719 151.819 34.2882C152.257 34.4524 152.725 34.5558 153.187 34.6166C154.428 34.7748 155.614 34.568 156.685 33.8928C157.488 33.3879 157.981 32.6701 158.127 31.7273C158.133 31.6969 158.139 31.6665 158.139 31.6361C158.139 30.4864 158.139 29.349 158.139 28.1385Z" fill="white"/>
<path d="M81.8186 17.9746C82.2626 17.8651 86.2712 17.8651 86.6483 17.9685C86.6483 24.6474 86.6483 31.3323 86.6483 38.0537C85.0668 38.0537 83.5096 38.0537 81.8855 38.0537C81.8551 37.3481 81.8855 36.6425 81.8612 35.8396C81.6726 36.0282 81.5631 36.1376 81.4475 36.2532C80.3527 37.3785 79.0814 38.2788 77.512 38.4917C75.0181 38.8323 72.7127 38.4004 70.9731 36.3566C70.1519 35.3895 69.72 34.2398 69.5497 32.999C69.428 32.1291 69.3672 31.2471 69.3611 30.3651C69.3429 26.3809 69.355 22.3968 69.355 18.4126C69.355 18.2605 69.355 18.1145 69.355 17.9685C69.72 17.8712 73.5947 17.853 74.1726 17.9442C74.1726 18.1084 74.1726 18.2848 74.1726 18.4612C74.1726 22.3055 74.1726 26.1559 74.1726 30.0002C74.1726 30.7909 74.2152 31.5817 74.4341 32.3481C74.866 33.8688 76.0704 34.8055 77.658 34.8055C78.1507 34.8055 78.6616 34.7325 79.1422 34.5987C80.529 34.2033 81.2346 33.1754 81.5814 31.8372C81.8064 30.9612 81.8064 30.061 81.8064 29.1668C81.8125 25.6267 81.8064 22.0805 81.8064 18.5403C81.8186 18.3457 81.8186 18.151 81.8186 17.9746Z" fill="white"/>
<path d="M191.661 38.0292C191.661 37.8285 191.661 37.6521 191.661 37.4696C191.661 33.5584 191.661 29.6533 191.661 25.7421C191.661 24.9027 191.612 24.0694 191.375 23.2604C190.979 21.9222 190.158 21.2774 188.753 21.2105C188.029 21.174 187.324 21.247 186.642 21.5025C185.097 22.0925 184.288 23.2604 184.051 24.8541C183.972 25.3772 183.948 25.9124 183.948 26.4416C183.942 30.1095 183.942 33.7713 183.942 37.4392C183.942 37.6217 183.942 37.8042 183.942 37.9745C183.601 38.09 179.629 38.1144 179.142 38.0049C179.142 31.3261 179.142 24.6351 179.142 17.9198C180.639 17.9198 182.123 17.9198 183.668 17.9198C183.686 18.8687 183.668 19.8176 183.759 20.7969C183.838 20.6996 183.923 20.6083 183.996 20.5049C184.592 19.6533 185.274 18.8808 186.156 18.303C187.001 17.7494 187.926 17.4271 188.935 17.3845C190.146 17.3297 191.338 17.4331 192.476 17.8772C194.678 18.7348 195.955 20.3589 196.344 22.6704C196.448 23.2665 196.472 23.8808 196.478 24.4891C196.49 28.8382 196.484 33.1874 196.484 37.5365C196.484 37.6886 196.484 37.8346 196.484 37.9745C196.143 38.0961 192.372 38.1326 191.661 38.0292Z" fill="white"/>
<path d="M93.5035 32.1229C93.5339 32.202 93.5704 32.2811 93.5947 32.3662C93.8684 33.3881 94.5375 34.039 95.5047 34.4161C96.3928 34.7628 97.3173 34.8236 98.2419 34.702C98.7772 34.629 99.3246 34.5134 99.8234 34.3066C100.784 33.9112 101.198 33.084 101.052 32.0621C100.979 31.5451 100.699 31.1618 100.298 30.8577C99.8599 30.5232 99.355 30.292 98.8258 30.1582C97.6944 29.8662 96.557 29.5986 95.4134 29.337C94.2273 29.0633 93.0473 28.7774 91.9524 28.2361C90.0241 27.2811 89.0752 25.7117 88.9901 23.5767C88.9414 22.3358 89.1908 21.1862 89.9512 20.1886C90.602 19.3309 91.4597 18.7409 92.439 18.3151C94.0692 17.6034 95.7906 17.3601 97.5546 17.3784C99.0144 17.3966 100.426 17.6521 101.746 18.309C103.437 19.1485 104.544 20.4623 104.975 22.3176C105.012 22.4757 105.024 22.646 105.055 22.8407C103.364 22.8407 101.715 22.8407 100.048 22.8407C100.006 22.7738 99.9451 22.7069 99.9025 22.6278C99.3733 21.6789 98.5521 21.2166 97.4876 21.1558C96.7212 21.1132 95.967 21.174 95.237 21.4173C94.9511 21.5086 94.6774 21.6545 94.4341 21.8309C93.692 22.3662 93.3696 23.7348 94.5193 24.4465C94.8782 24.6655 95.2675 24.8662 95.6689 24.9818C96.6482 25.2555 97.6397 25.4867 98.6312 25.7117C99.9329 26.0159 101.235 26.3139 102.463 26.8614C103.364 27.2628 104.185 27.7738 104.811 28.5524C105.748 29.702 106.034 31.0524 105.894 32.494C105.62 35.3224 103.862 36.9648 101.393 38.0049C100.62 38.3334 99.7808 38.455 98.9475 38.528C97.0071 38.7044 95.0911 38.5949 93.2419 37.9137C91.8307 37.3906 90.602 36.6059 89.72 35.3589C89.0448 34.4039 88.7224 33.3273 88.6616 32.129C90.2735 32.1229 91.8794 32.1229 93.5035 32.1229Z" fill="white"/>
<path d="M139.732 38.0658C137.993 38.0658 136.296 38.0658 134.544 38.0658C132.22 31.3748 129.903 24.6777 127.561 17.9259C127.762 17.9138 127.901 17.8955 128.047 17.8955C129.477 17.8955 130.906 17.8955 132.336 17.8955C132.792 17.8955 132.798 17.8955 132.926 18.3395C133.814 21.4052 134.696 24.4649 135.584 27.5305C136.101 29.3128 136.612 31.0889 137.129 32.8712C137.171 33.0172 137.22 33.1571 137.305 33.3091C137.749 32.0561 138.066 30.7726 138.431 29.5013C138.802 28.2179 139.154 26.9284 139.513 25.6388C139.866 24.3675 140.219 23.0902 140.572 21.8189C140.931 20.5354 141.296 19.2459 141.661 17.932C143.309 17.932 144.945 17.932 146.581 17.932C146.594 17.9442 146.6 17.9563 146.606 17.9685C146.612 17.9807 146.624 17.9928 146.624 18.0111C146.624 18.0415 146.624 18.0719 146.618 18.1023C144.367 24.6656 142.111 31.2349 139.854 37.7982C139.824 37.8712 139.781 37.9563 139.732 38.0658Z" fill="white"/>
<path d="M170.304 17.95C170.304 18.5096 170.298 19.0571 170.304 19.5984C170.316 20.1337 170.261 20.6751 170.401 21.2286C170.474 21.0887 170.553 20.9488 170.62 20.8028C171.119 19.7931 171.8 18.9354 172.658 18.2055C173.674 17.3478 174.854 17.0741 176.143 17.1775C176.521 17.2079 176.892 17.2627 177.287 17.3113C177.287 18.7468 177.287 20.1398 177.287 21.5814C177.141 21.5631 177.013 21.551 176.885 21.5388C176.314 21.4719 175.742 21.3746 175.17 21.3502C174.586 21.3259 174.033 21.5145 173.516 21.7943C171.855 22.6945 170.924 24.0996 170.73 25.9731C170.645 26.7578 170.614 27.5485 170.614 28.3393C170.602 31.3806 170.608 34.422 170.608 37.4573C170.608 37.6398 170.608 37.8162 170.608 37.9865C170.261 38.102 166.46 38.1385 165.815 38.0412C165.724 37.7249 165.693 18.5522 165.785 17.9622C166.113 17.8709 169.714 17.8527 170.304 17.95Z" fill="white"/>
<path d="M218.601 17.3905C217.196 17.3905 216.046 16.247 216.04 14.8418C216.028 13.4246 217.196 12.2688 218.625 12.2749C220.042 12.281 221.174 13.4124 221.18 14.8175C221.18 16.247 220.036 17.3905 218.601 17.3905ZM216.326 14.8175C216.32 16.0888 217.324 17.1229 218.583 17.135C219.854 17.1472 220.918 16.0888 220.912 14.8297C220.906 13.5706 219.872 12.5426 218.613 12.5426C217.342 12.5365 216.332 13.5401 216.326 14.8175Z" fill="white"/>
<path d="M26.1251 17.9624C27.6457 17.9624 29.0995 17.9624 30.5533 17.9624C30.6506 18.3274 30.6567 35.73 30.5654 36.1802C29.1056 36.1802 27.6397 36.1802 26.1311 36.1802C26.1311 35.9855 26.1311 35.8213 26.1311 35.6571C26.1311 33.6802 26.1311 31.7033 26.1311 29.7264C26.1311 29.5926 26.1372 29.4527 26.1251 29.3189C26.1007 28.8931 25.9608 28.7106 25.535 28.6437C25.1761 28.5889 24.8112 28.5585 24.4462 28.5585C23.1688 28.5646 21.8915 28.5828 20.6141 28.6011C20.5229 28.6011 20.4316 28.6133 20.3404 28.6254C19.8416 28.7045 19.6834 28.8687 19.6469 29.3675C19.6348 29.5317 19.6409 29.7021 19.6409 29.8663C19.6409 31.7824 19.6409 33.6984 19.6409 35.6145C19.6409 35.7909 19.6409 35.9734 19.6409 36.1802C18.1628 36.1802 16.7394 36.1802 15.3221 36.1802C15.2248 35.8517 15.2005 18.5768 15.2978 17.9746C16.7151 17.9746 18.1323 17.9746 19.6105 17.9746C19.6226 18.1327 19.6409 18.2909 19.6409 18.449C19.6409 20.0427 19.6409 21.6425 19.6409 23.2361C19.6409 23.4004 19.6409 23.5707 19.653 23.7349C19.7017 24.2094 19.8538 24.3736 20.3343 24.4344C20.6628 24.477 20.9973 24.5074 21.3319 24.5135C22.3781 24.5257 23.4304 24.5257 24.4766 24.5135C24.7929 24.5135 25.1153 24.4831 25.4316 24.4405C25.9547 24.3797 26.119 24.1972 26.119 23.6619C26.1251 22.3845 26.1251 21.1072 26.1251 19.8298C26.1251 19.2276 26.1251 18.6254 26.1251 17.9624Z" fill="white"/>
<path d="M217.883 15.0551C217.883 15.3592 217.883 15.6573 217.883 15.9614C217.883 16.0709 217.877 16.1986 217.725 16.1743C217.67 16.1621 217.591 16.0527 217.585 15.9918C217.573 15.1889 217.579 14.3921 217.579 13.6013C217.975 13.4796 218.832 13.4796 219.13 13.5952C219.374 13.6865 219.538 13.8568 219.568 14.1244C219.599 14.3981 219.514 14.6354 219.288 14.7996C219.185 14.8726 219.057 14.9273 218.911 15.0003C219.288 15.3106 219.501 15.6999 219.623 16.1378C219.428 16.2351 219.319 16.1743 219.24 16.0101C219.155 15.8337 219.069 15.6573 218.966 15.487C218.741 15.0916 218.388 14.9578 217.883 15.0551ZM217.908 14.7935C218.273 14.7631 218.589 14.7692 218.893 14.7084C219.142 14.6597 219.234 14.4833 219.228 14.2339C219.222 13.9845 219.124 13.8507 218.857 13.7899C218.546 13.7229 218.236 13.7047 217.902 13.7959C217.908 14.1062 217.908 14.4042 217.908 14.7935Z" fill="white"/>
</svg>
