<?xml version="1.0" encoding="utf-8"?><svg xmlns="http://www.w3.org/2000/svg" xmlns:xlink="http://www.w3.org/1999/xlink"><symbol viewBox="0 0 18 19" id="6-dots-icon" xmlns="http://www.w3.org/2000/svg"><path d="M7.5.283h10v3.13h-10zm0 7.435h10v3.13h-10zm0 7.434h10v3.13h-10zm-7.5 0h3v3.13H0zm0-7.434h3v3.13H0zM0 .283h3v3.13H0z"/></symbol><symbol viewBox="0 0 18 19" id="9-dots-icon" xmlns="http://www.w3.org/2000/svg"><path d="M0 .283h3v3.13H0zm7.5 0h3v3.13h-3zm7.5 0h3v3.13h-3zM0 7.718h3v3.13H0zm7.5 0h3v3.13h-3zm7.5 0h3v3.13h-3zM0 15.152h3v3.13H0zm7.5 0h3v3.13h-3zm7.5 0h3v3.13h-3z"/></symbol><symbol viewBox="0 0 261 451" id="action-item" xmlns="http://www.w3.org/2000/svg"><path d="M234.212 169.13H177.47L260.677 0H140.113L16.172 251.917h64.62L.323 454.692 234.212 169.13z"/></symbol><symbol viewBox="0 0 8 14" id="angle-left" xmlns="http://www.w3.org/2000/svg"><path d="M6.938 13.112L.94 7.152 6.938 1.19"/></symbol><symbol viewBox="0 0 28 21" id="arrow-top-left" xmlns="http://www.w3.org/2000/svg"><path d="M26.867 12.85v1h1v-1h-1zM1.16 12.143a1 1 0 000 1.414l6.364 6.364a1 1 0 001.414-1.415L3.281 12.85l5.657-5.657a1 1 0 00-1.414-1.414L1.16 12.143zM25.867.85v12h2v-12h-2zm1 11h-25v2h25v-2z"/></symbol><symbol viewBox="0 0 26 22" id="basket" xmlns="http://www.w3.org/2000/svg"><path d="M25.458 7.875h-4.441L15.963.526a.542.542 0 00-.753-.14L14.318 1a.542.542 0 00-.14.754l4.209 6.12H7.613l4.208-6.12a.542.542 0 00-.14-.754L10.79.387a.542.542 0 00-.753.14L4.984 7.874H.542c-.3 0-.542.242-.542.542V9.5c0 .299.243.541.542.541h.687L4.54 20.448a2.16 2.16 0 002.065 1.51h12.79a2.16 2.16 0 002.065-1.51l3.311-10.407h.687A.54.54 0 0026 9.5V8.417c0-.3-.242-.542-.542-.542z"/></symbol><symbol viewBox="0 0 26 22" id="basket-alt" xmlns="http://www.w3.org/2000/svg"><path d="M20.753 8.083l-.148-.216L15.552.518a.042.042 0 00-.058-.01l-.893.613a.042.042 0 00-.01.058l6.162 6.904zm0 0h.264m-.264 0h.264m0 0h4.441m-4.441 0h4.441m-14.06-6.962l-.893-.614a.042.042 0 00-.057.011L5.396 7.867l-.15.216H.543a.042.042 0 00-.042.042v1.083c0 .023.019.042.042.042h1.053l.11.348 3.312 10.407a1.66 1.66 0 001.588 1.162h12.79a1.66 1.66 0 001.588-1.162l3.312-10.407.11-.348h1.053a.042.042 0 00.042-.042V8.125L11.399 1.121zm0 0a.042.042 0 01.011.058l-.01-.058zm14.06 6.962c.023 0 .042.019.042.042l-.042-.042zM18.8 7.3l-4.209-6.12h-3.182L7.201 7.3l-.538.783h12.674L18.8 7.3z"/></symbol><symbol viewBox="0 0 30 41" id="blank" xmlns="http://www.w3.org/2000/svg"><path d="M.21.117v40h19.783l9.28-9.28V.117H.211zm20.47 36v-4.594h4.593l-4.593 4.593zm6.25-6.937h-8.594v8.593H2.555V2.461H26.93V29.18z"/><path d="M4.898 4.805v22.03h19.688V4.806H4.898zm12.657 19.687H7.242V11.836h10.313v12.656zm4.687 0h-2.344V11.836h2.344v12.656zm0-15h-15V7.148h15v2.344zm-6.25 19.688H4.898v2.343h11.094V29.18z"/></symbol><symbol viewBox="0 0 31 18" id="car" xmlns="http://www.w3.org/2000/svg"><path d="M11.182 12.4a2.505 2.505 0 00-2.504 2.507 2.504 2.504 0 005.008 0 2.505 2.505 0 00-2.504-2.507zm0 3.76a1.25 1.25 0 111.252-1.252c0 .688-.56 1.251-1.252 1.251zm18.884-5.613v2.674c0 .667-.54 1.207-1.207 1.207h-1.292a3.318 3.318 0 00-3.281-2.834 3.317 3.317 0 00-3.277 2.834h-6.55a3.317 3.317 0 00-3.276-2.834 3.317 3.317 0 00-3.277 2.834H6.288c-.667 0-1.207-.54-1.207-1.207v-2.674h24.985zM24.29 12.4a2.508 2.508 0 00-2.508 2.507A2.507 2.507 0 1024.29 12.4zm0 3.76a1.253 1.253 0 01-1.252-1.253 1.25 1.25 0 112.504 0c0 .689-.564 1.252-1.252 1.252zm5.302-8.305L24.845 3.16a1.613 1.613 0 00-1.131-.467h-2.396v-.898c0-.668-.539-1.207-1.207-1.207H6.287c-.664 0-1.207.54-1.207 1.207v.19l-4.9.564L8.863 3.68l-8.797.874L8.832 5.8l-8.766.76 5.014.946V9.88h24.986v-.882c0-.43-.174-.841-.475-1.143zm-2.07.157h-4.593a.189.189 0 01-.189-.19V4.277a.19.19 0 01.19-.189h.873c.048 0 .097.02.133.052l3.715 3.547a.189.189 0 01-.128.326z"/></symbol><symbol viewBox="0 0 42 31" id="card" xmlns="http://www.w3.org/2000/svg"><path d="M0 .059v30h41.483v-30H0zm39.052 2.43v2.435H2.431V2.489h36.621zm0 4.865V9.79H2.431V7.354h36.621zM2.431 27.628V12.22h36.621v15.408H2.431z"/><path d="M32.563 17.087a4.07 4.07 0 00-2.432.814 4.032 4.032 0 00-2.433-.814 4.058 4.058 0 00-4.053 4.053 4.058 4.058 0 004.053 4.053 4.03 4.03 0 002.433-.814 4.069 4.069 0 002.432.814 4.058 4.058 0 004.053-4.053 4.058 4.058 0 00-4.053-4.053zm-4.865 5.676a1.625 1.625 0 01-1.623-1.623c0-.895.728-1.623 1.623-1.623s1.623.728 1.623 1.623-.728 1.623-1.623 1.623zm4.865 0c-.378 0-.733-.129-1.016-.357a4.036 4.036 0 000-2.532 1.625 1.625 0 012.638 1.267c0 .894-.727 1.622-1.622 1.622zm-27.703 0h11.014v2.43H4.86v-2.43zm0-4.865h11.014v2.43H4.86v-2.43z"/></symbol><symbol viewBox="0 0 344.96 344.96" id="check" xmlns="http://www.w3.org/2000/svg"><g data-name="Слой 2"><path d="M321.85 86.24l-40-23.11-23.1-40H212.5L172.48 0l-40 23.11H86.24l-23.11 40-40 23.1v46.21L0 172.48l23.11 40v46.21l40 23.11 23.11 40h46.21l40 23.1 40-23.11h46.21l23.11-40 40-23.11V212.5l23.11-40-23.11-40V86.24zM156.91 243.07a16.79 16.79 0 01-23.34 0l-50.45-50.44a16.19 16.19 0 010-22.89l13.35-13.35a16.19 16.19 0 0122.89 0l25.87 25.87 80.34-80.35a16.19 16.19 0 0122.89 0l13.35 13.35a16.19 16.19 0 010 22.89z" data-name="Capa 1"/></g></symbol><symbol viewBox="0 0 27 19" id="check-common" xmlns="http://www.w3.org/2000/svg"><path d="M1 8.925l8.5 8.5L26 .925"/></symbol><symbol viewBox="0 0 14 8" id="chevron-down" xmlns="http://www.w3.org/2000/svg"><path d="M13 1L7 7 1 1"/></symbol><symbol viewBox="0 0 8 14" id="chevron-right" xmlns="http://www.w3.org/2000/svg"><path d="M1 1l6 6-6 6"/></symbol><symbol viewBox="0 0 19 19" id="clock" xmlns="http://www.w3.org/2000/svg"><path d="M9.731.591a9 9 0 100 18 9 9 0 000-18zm0 16.418c-4.09 0-7.418-3.327-7.418-7.418 0-4.09 3.328-7.418 7.418-7.418s7.418 3.328 7.418 7.418-3.327 7.418-7.418 7.418z"/><path d="M9.731 3.228a6.37 6.37 0 00-6.363 6.363 6.37 6.37 0 006.363 6.364 6.37 6.37 0 006.364-6.364A6.37 6.37 0 009.73 3.228zm.528 6.582l-3.536 3.535-.745-.746 3.226-3.226V4.81h1.055v5z"/></symbol><symbol viewBox="0 0 41 40" id="coins" xmlns="http://www.w3.org/2000/svg"><g clip-path="url(#apclip0)"><path d="M24.378 7.597V4.483c0-5.978-23.636-5.978-23.636 0v18.214c0 2.35 3.679 3.815 8.104 4.336-1.618.726-2.65 1.706-2.65 2.95v5.463c0 2.99 5.946 4.554 11.819 4.554 5.873 0 11.818-1.565 11.818-4.554V32.7c5.562-.153 10.91-1.703 10.91-4.538V11.769c0-3.774-9.418-5.163-16.365-4.172zM12.56 1.817c6.47 0 10 1.802 10 2.728 0 .926-3.53 2.727-10 2.727-6.47 0-10-1.8-10-2.727 0-.926 3.53-2.727 10-2.727zm-10 5.258c2.206 1.328 6.114 2.016 10 2.016 3.887 0 7.794-.688 10-2.016v.903c-3.159.701-5.454 1.98-5.454 3.84v.538a28.844 28.844 0 01-4.546.371c-6.47 0-10-1.801-10-2.727V7.075zm16.364 18.182c.173.104.353.205.546.301a35.312 35.312 0 00-.546-.02v-.281zM2.56 12.53c2.206 1.327 6.114 2.015 10 2.015a30.81 30.81 0 004.546-.357v4.531a28.832 28.832 0 01-4.546.372c-6.47 0-10-1.802-10-2.728V12.53zm0 10.197v-3.834c2.206 1.328 6.114 2.016 10 2.016 1.574 0 3.104-.141 4.546-.357v4.531a28.832 28.832 0 01-4.546.371c-6.47 0-10-1.801-10-2.727zm25.455 12.727c0 .926-3.53 2.728-10 2.728-6.47 0-10-1.802-10-2.728V32.53c2.206 1.328 6.113 2.016 10 2.016 3.72 0 7.465-.629 9.713-1.847.095.004.192.004.287.007v2.75zm-10-2.727c-6.47 0-10-1.801-10-2.727 0-.926 3.53-2.727 10-2.727 6.47 0 10 1.8 10 2.727 0 .926-3.53 2.727-10 2.727zm20.909-4.545c0 .88-3.221 2.532-9.09 2.695V30c0-1.136-.86-2.054-2.247-2.758.445.018.89.03 1.337.03 3.887 0 7.794-.688 10-2.015v2.925zm0-5.455c0 .926-3.53 2.727-10 2.727-6.47 0-10-1.8-10-2.727v-2.925c2.206 1.328 6.113 2.016 10 2.016 3.887 0 7.794-.688 10-2.016v2.925zm0-5.454c0 .925-3.53 2.727-10 2.727-6.47 0-10-1.802-10-2.727v-2.925c2.206 1.327 6.113 2.015 10 2.015 3.887 0 7.794-.688 10-2.015v2.925zm-10-2.728c-6.47 0-10-1.801-10-2.727 0-.926 3.53-2.727 10-2.727 6.47 0 10 1.801 10 2.727 0 .926-3.53 2.727-10 2.727z"/></g><defs><clipPath id="apclip0"><path d="M.742 0h40v40h-40z"/></clipPath></defs></symbol><symbol viewBox="0 0 17 18" id="compare" xmlns="http://www.w3.org/2000/svg"><path d="M13.136.5h3v17h-3zM6.914 5.167h3V17.5h-3zM.692 9.611h3V17.5h-3z"/></symbol><symbol viewBox="0 0 22 22" id="cross" xmlns="http://www.w3.org/2000/svg"><path d="M1 1l20 20M1 21L21 1"/></symbol><symbol viewBox="0 0 19 14" id="email" xmlns="http://www.w3.org/2000/svg"><path d="M18.751 2.12l-4.855 4.835 4.853 4.832c.026-.335.015-9.51.002-9.668zM17.003.5H2.528c-.471 0-.904.185-1.22.489l8.042 8.01c.229.23.6.23.83.002L18.22.99A1.748 1.748 0 0017.003.5zM.78 2.12c-.014.162-.026 9.335.001 9.67l4.862-4.826L.779 2.12z"/><path d="M13.065 7.783l-2.056 2.048a1.76 1.76 0 01-2.488 0L6.474 7.792l-5.162 5.125c.316.304.743.493 1.216.493h14.475c.472 0 .9-.19 1.216-.494l-5.154-5.133z"/></symbol><symbol viewBox="0 0 30 25" id="filter-bar-icon" xmlns="http://www.w3.org/2000/svg"><path d="M0 3h30M0 12h30M0 22h30M4.5.5h5v5h-5zm17.5 9h5v5h-5zm-11 10h5v5h-5z"/></symbol><symbol viewBox="0 0 183 200" id="gray-logo" xmlns="http://www.w3.org/2000/svg"><path d="M18.204 44.71c-.135-.273-.169-.41-.202-.444-6.446-3.997-9.45-10.215-10.934-17.389-1.148-5.568-1.316-11.17-.641-16.808.135-1.025.472-1.708 1.417-2.186 9.685-4.92 19.843-8.54 30.405-11 .237-.069.507 0 1.013 0 0 1.024-.034 2.015 0 3.04.135 4.783.202 9.565.405 14.314.067 1.435.472 2.87.911 4.236 1.755 5.671 5.028 8.336 10.9 8.61 5.872.307 11.373-1.162 16.4-4.305 4.118-2.562 6.379-6.286 6.311-11.24-.033-4.85-.168-9.736-.27-14.587-.033-1.606-.135-3.212-.236-5.056 11.845-3.075 23.555-2.802 35.501-.034-.135 1.434-.236 2.664-.371 3.928-.54 6.115-.843 12.265.101 18.38.473 3.04 1.924 5.5 4.286 7.276 6.345 4.749 13.431 6.526 21.26 5.125 2.734-.479 4.759-2.05 6.142-4.51 1.553-2.733 2.363-5.67 2.565-8.745.304-4.51.371-9.02.506-13.563.034-.922 0-1.845 0-2.972.844.102 1.485.102 2.126.273 9.753 2.46 19.202 5.876 28.212 10.42 1.249.649 1.856 1.366 2.025 2.87.54 5.226.405 10.385-.54 15.544-1.384 7.55-4.218 14.211-11.271 18.447.303.479.472.957.776 1.264 4.691 5.09 7.795 11.138 9.753 17.765 3.239 10.898 5.467 22 6.783 33.309 1.316 11.41 1.181 22.82.101 34.265-.439 4.509-.641 9.019-1.148 13.528-.337 2.972-.809 5.944-1.586 8.814-2.294 8.575-4.69 17.116-8.942 24.973-6.851 12.64-16.941 21.523-30.507 26.169-7.559 2.596-15.321 4.031-23.251 4.612-14.073.99-28.179.649-42.25.307-10.665-.273-21.16-1.845-31.216-5.671-16.064-6.115-27.099-17.457-33.747-33.343-4.657-11.137-7.019-22.786-7.559-34.811-.337-7.687-.81-15.339-.911-23.026-.169-16.945 2.565-33.48 7.458-49.673 1.991-6.525 5.096-12.435 9.82-17.423.101-.17.236-.41.405-.683zm73.027 138.906c7.256-.171 14.68-.308 22.07-.513 5.67-.137 11.238-1.059 16.705-2.596 6.817-1.913 12.081-5.774 15.489-12.23 2.734-5.193 4.489-10.659 5.737-16.33 1.856-8.438 2.531-17.047 2.768-25.656.405-14.759.54-29.551-1.789-44.207-1.012-6.422-2.733-12.64-5.399-18.584-3.847-8.61-10.293-13.665-19.405-15.51-5.23-1.06-10.495-1.845-15.793-1.88-13.498-.102-26.997-.136-40.462 0-6.074.07-12.115.82-17.987 2.46-6.276 1.743-11.743 4.818-15.22 10.625-1.484 2.46-2.699 5.125-3.711 7.823-3.409 9.122-4.624 18.687-5.029 28.355-.64 15.51-.776 31.054.878 46.564.776 7.208 2.16 14.314 4.454 21.215 3.24 9.702 9.888 15.373 19.573 17.765 5.265 1.298 10.563 2.118 15.996 2.254 6.952.103 13.971.274 21.125.445z"/><path d="M109.25 61.688h24.568c.54 2.025.573 98.573.067 101.071h-24.601v-35.805c0-.743.034-1.519-.034-2.261-.135-2.363-.911-3.375-3.273-3.746a40.09 40.09 0 00-6.04-.473c-7.087.034-14.174.135-21.261.237-.506 0-1.012.067-1.519.135-2.767.438-3.644 1.349-3.847 4.117-.067.911-.033 1.856-.033 2.767v35.029h-23.96c-.54-1.823-.675-97.662-.135-101.003h23.926c.067.877.169 1.755.169 2.632v26.558c0 .912 0 1.856.067 2.768.27 2.632 1.114 3.543 3.78 3.88 1.822.237 3.678.405 5.534.44 5.804.067 11.643.067 17.447 0 1.755 0 3.543-.17 5.298-.406 2.902-.337 3.813-1.35 3.813-4.32.034-7.086.034-14.173.034-21.26v-10.36z"/></symbol><symbol viewBox="0 0 21 21" id="house" xmlns="http://www.w3.org/2000/svg"><path d="M19.816 10.266a.954.954 0 00-.078-1.365l-8.939-7.82a1.114 1.114 0 00-1.453.016L.377 9.318a.948.948 0 00-.043 1.363l.225.234c.373.388.976.435 1.346.103l.67-.6v8.788c0 .539.437.975.976.975h3.496a.975.975 0 00.976-.975v-6.148h4.459v6.148c-.008.538.378.975.916.975h3.705a.975.975 0 00.976-.976v-8.663l.413.363c.228.2.707.04 1.07-.36l.254-.28z"/></symbol><symbol viewBox="0 0 17 16" id="like" xmlns="http://www.w3.org/2000/svg"><path d="M12.739.5c-1.816 0-3.315 1.686-3.921 2.482C8.212 2.186 6.713.5 4.898.5 2.548.5.636 2.66.636 5.315c0 1.449.575 2.799 1.582 3.723a.336.336 0 00.053.07L8.577 15.4a.34.34 0 00.482 0l6.516-6.513.067-.066c.053-.05.106-.1.165-.166a.333.333 0 00.06-.081C16.599 7.679 17 6.524 17 5.315 17 2.66 15.088.5 12.739.5z"/></symbol><symbol viewBox="0 0 17 15" id="like-alt" xmlns="http://www.w3.org/2000/svg"><path d="M7.875 2.785l.398.522.397-.522a7.94 7.94 0 011.414-1.446C10.718.852 11.44.5 12.194.5c2.017 0 3.76 1.877 3.76 4.315 0 1.1-.365 2.141-1.02 2.942l-.03.039-.013.023a2.569 2.569 0 01-.137.139l-.005.005-.068.065-.005.005-6.403 6.401-6.179-6.166-.027-.047-.057-.052C1.113 7.346.59 6.133.59 4.815.59 2.377 2.335.5 4.353.5c.753 0 1.475.352 2.109.839a7.939 7.939 0 011.414 1.446z"/></symbol><symbol viewBox="0 0 12 18" id="mark" xmlns="http://www.w3.org/2000/svg"><path d="M5.866.263A5.872 5.872 0 000 6.13c0 4.065 5.871 11.01 5.871 11.01s5.86-7.145 5.86-11.01A5.872 5.872 0 005.866.263zm1.77 7.584a2.495 2.495 0 01-1.77.731 2.499 2.499 0 01-1.77-.731 2.506 2.506 0 010-3.54 2.486 2.486 0 011.77-.733c.668 0 1.297.26 1.77.733a2.506 2.506 0 010 3.54z"/></symbol><symbol viewBox="0 0 26 25" id="plane" xmlns="http://www.w3.org/2000/svg"><path d="M25.566 12.5c0-1-.875-1.875-1.875-1.875h-6.875l-6.25-10h-2.5l3.125 10H4.316l-1.875-2.5H.566l1.25 4.375-1.25 4.375h1.875l1.875-2.5h6.875l-3.125 10h2.5l6.25-10h6.875c1 0 1.875-.875 1.875-1.875z"/></symbol><symbol viewBox="0 0 20 34" id="sand-clock" xmlns="http://www.w3.org/2000/svg"><path d="M1.531 31.846h.687v-1.822c0-.422.335-.764.748-.764h.812v-6.11c0-1.971.973-3.78 2.602-4.837l1.876-1.217-.105-.106-1.77-1.149c-1.63-1.057-2.603-2.865-2.603-4.837v-6.11h-.812a.756.756 0 01-.748-.764V2.31h-.687a.756.756 0 01-.748-.765c0-.422.335-.764.748-.764h17.357c.413 0 .748.342.748.764a.756.756 0 01-.748.765h-.687v1.82a.756.756 0 01-.748.765h-.811v6.11c0 1.971-.973 3.78-2.603 4.837l-1.55 1.005-.297.268 1.847 1.198c1.63 1.057 2.603 2.866 2.603 4.838v6.109h.811c.413 0 .748.342.748.764v1.822h.687c.413 0 .748.342.748.764a.756.756 0 01-.748.764H1.531a.756.756 0 01-.748-.764c0-.422.335-.764.748-.764zm3.743-8.695v.215l4.187-1.69v-3.565c-.043.037-.09.072-.139.104l-2.14 1.388a4.205 4.205 0 00-1.908 3.548zm0-18.256v6.11c0 .643.142 1.262.404 1.82h9.063a4.278 4.278 0 00.404-1.821v-6.11H5.274zm7.963 14.708l-2.14-1.388a1.358 1.358 0 01-.14-.104v3.567l4.188 1.688v-.215a4.204 4.204 0 00-1.908-3.548z"/></symbol><symbol viewBox="0 0 22 26" id="small-blue-logo" xmlns="http://www.w3.org/2000/svg"><path d="M2.071 6.704c-.016-.031-.02-.047-.024-.05C1.293 6.198.941 5.492.767 4.676a5.745 5.745 0 01-.075-1.91c.016-.116.056-.194.166-.248a15.989 15.989 0 013.56-1.25c.027-.008.059 0 .118 0 0 .116-.004.229 0 .345.016.544.024 1.087.048 1.627.007.163.055.326.106.481.206.645.589.948 1.276.979a3.312 3.312 0 001.92-.49c.482-.29.747-.714.739-1.277-.004-.55-.02-1.106-.032-1.657-.004-.183-.015-.365-.027-.575 1.386-.35 2.757-.318 4.156-.004-.016.163-.028.303-.044.447-.063.695-.098 1.393.012 2.088.056.346.225.625.502.827.743.54 1.572.742 2.489.583a.996.996 0 00.719-.513 2.25 2.25 0 00.3-.994c.036-.512.044-1.025.06-1.541.003-.105 0-.21 0-.338.098.012.173.012.248.031 1.142.28 2.248.668 3.303 1.184.146.074.217.156.237.327.063.593.047 1.18-.063 1.766-.162.858-.494 1.615-1.32 2.096.036.055.056.109.091.144.55.578.913 1.265 1.142 2.019.38 1.238.64 2.5.794 3.785.154 1.296.138 2.593.012 3.893-.052.513-.075 1.025-.135 1.538a6.61 6.61 0 01-.185 1.001c-.269.975-.55 1.945-1.047 2.838-.802 1.436-1.983 2.446-3.572 2.974-.885.295-1.793.458-2.722.524-1.647.113-3.298.074-4.946.035-1.248-.031-2.477-.21-3.654-.645-1.88-.694-3.172-1.983-3.95-3.788-.546-1.266-.822-2.59-.885-3.956-.04-.874-.095-1.743-.107-2.617-.02-1.926.3-3.804.873-5.645.233-.741.596-1.413 1.15-1.98l.047-.077zm8.55 15.785c.848-.02 1.718-.035 2.583-.059a8.13 8.13 0 001.955-.295c.798-.217 1.415-.656 1.814-1.39.32-.59.525-1.21.671-1.855.218-.959.297-1.937.324-2.916.048-1.677.063-3.358-.21-5.023a8.094 8.094 0 00-.631-2.112c-.45-.978-1.205-1.553-2.272-1.762-.612-.12-1.229-.21-1.849-.214a275.37 275.37 0 00-4.737 0 8.383 8.383 0 00-2.105.28c-.735.198-1.375.547-1.782 1.207a5.26 5.26 0 00-.434.889c-.4 1.036-.542 2.123-.59 3.222-.074 1.763-.09 3.529.104 5.291.09.82.252 1.627.521 2.411.38 1.103 1.158 1.747 2.291 2.019.617.148 1.237.24 1.873.256.814.012 1.636.031 2.473.05z"/><path d="M12.73 8.734h2.876c.063.233.067 11.34.008 11.627h-2.88v-4.119c0-.085.003-.174-.005-.26-.015-.271-.106-.388-.383-.43a4.77 4.77 0 00-.707-.055c-.83.004-1.66.016-2.489.027-.059 0-.118.008-.177.016-.324.05-.427.155-.45.473-.009.105-.005.214-.005.319v4.029H5.713c-.063-.21-.079-11.235-.016-11.619h2.801c.008.101.02.202.02.303V12.1c0 .105 0 .214.008.319.032.302.13.407.443.446.213.027.43.046.647.05.68.008 1.363.008 2.043 0 .205 0 .415-.019.62-.046.34-.039.447-.155.447-.497.003-.815.003-1.63.003-2.446V8.734z"/></symbol><symbol viewBox="0 0 16 15" id="small-star" xmlns="http://www.w3.org/2000/svg"><path d="M8.52.252l1.964 4.516 5.029.42c.348.03.49.452.226.674l-3.814 3.21 1.143 4.776c.079.332-.291.593-.591.416l-4.321-2.531-4.322 2.531c-.3.176-.67-.085-.59-.416l1.143-4.776-3.815-3.21c-.265-.223-.124-.646.226-.675l5.028-.42L7.79.252a.4.4 0 01.73 0z"/></symbol><symbol viewBox="0 0 16 15" id="small-star-empty" xmlns="http://www.w3.org/2000/svg"><path d="M9.878 5.081l.12.274.297.025 4.756.397-3.596 3.027-.236.198.072.3 1.082 4.522-4.112-2.409-.253-.148-.253.148-4.112 2.41 1.083-4.522.071-.3-.236-.2L.965 5.777 5.72 5.38l.298-.024.12-.274 1.87-4.3 1.87 4.3zm5.392.512zM3.583 14.078zM8.373.366l1.964 4.516L8.373.366z"/></symbol><symbol viewBox="0 0 295 451" id="star-bestseller" xmlns="http://www.w3.org/2000/svg"><path d="M148.5-2.125l56.241 173.091H386.74L239.499 277.943l56.241 173.091L148.5 344.057 1.26 451.034 57.5 277.943-89.74 170.966h182L148.5-2.125z"/></symbol><symbol viewBox="0 0 295 365" id="star-new-item" xmlns="http://www.w3.org/2000/svg"><path d="M147.5.5l39.369 60.835 67.608-26.076-3.908 72.357 70.023 18.643L274.9 182.5l45.692 56.241-70.023 18.643 3.908 72.357-67.608-26.076L147.5 364.5l-39.369-60.835-67.608 26.076 3.908-72.357-70.023-18.643L20.1 182.5l-45.692-56.241 70.023-18.643-3.908-72.357 67.608 26.076L147.5.5z"/></symbol><symbol viewBox="0 0 17 17" id="tel" xmlns="http://www.w3.org/2000/svg"><path d="M15.448 11.127c-.98 0-1.942-.153-2.853-.454-.447-.153-.996-.013-1.269.267l-1.799 1.358C7.441 11.184 6.156 9.9 5.057 7.83l1.319-1.752c.342-.342.465-.842.318-1.31a9.098 9.098 0 01-.457-2.858c0-.708-.575-1.284-1.283-1.284H2.015C1.307.626.731 1.202.731 1.91c0 8.114 6.602 14.716 14.717 14.716.707 0 1.284-.576 1.284-1.284v-2.93c0-.708-.576-1.284-1.284-1.284z"/></symbol><symbol viewBox="0 0 24 25" id="user" xmlns="http://www.w3.org/2000/svg"><path d="M24 12.959c0-6.617-5.383-12-12-12s-12 5.383-12 12a11.97 11.97 0 003.895 8.84l-.011.01.389.328c.025.02.053.038.078.06a12.043 12.043 0 00.853.643c.233.16.472.313.716.457.053.032.107.062.16.093.268.152.541.296.821.427l.062.028c.912.424 1.885.735 2.902.919l.08.014c.316.055.636.099.96.128l.118.009c.322.027.647.044.977.044.327 0 .65-.017.97-.043l.121-.01c.321-.029.638-.071.95-.125l.082-.014a11.892 11.892 0 002.862-.897l.1-.046a12.104 12.104 0 001.671-.955c.08-.055.16-.113.24-.17.191-.138.38-.28.562-.43.04-.032.084-.06.124-.094l.4-.334-.012-.01A11.969 11.969 0 0024 12.96zm-23.127 0C.873 6.823 5.864 1.83 12 1.83c6.136 0 11.127 4.992 11.127 11.128a11.1 11.1 0 01-3.748 8.318 3.257 3.257 0 00-.39-.234l-3.694-1.848a.967.967 0 01-.538-.87v-1.29c.086-.105.176-.225.27-.356a8.89 8.89 0 001.141-2.236c.553-.262.91-.813.91-1.435V11.46c0-.378-.139-.745-.387-1.033V8.39c.023-.227.103-1.505-.822-2.559C15.065 4.914 13.763 4.45 12 4.45c-1.763 0-3.065.465-3.87 1.383-.924 1.054-.844 2.333-.82 2.559v2.036a1.59 1.59 0 00-.388 1.034v1.547c0 .48.216.928.585 1.23a8.199 8.199 0 001.35 2.789v1.263a.973.973 0 01-.508.854L4.9 21.026c-.11.06-.219.13-.328.208a11.1 11.1 0 01-3.698-8.276z"/></symbol><symbol viewBox="0 0 21 20" id="zoom" xmlns="http://www.w3.org/2000/svg"><path d="M15.008 12.91a8.07 8.07 0 001.573-4.785C16.581 3.645 12.936 0 8.456 0S.331 3.645.331 8.125s3.645 8.125 8.125 8.125c1.79 0 3.44-.589 4.785-1.573L18.564 20l1.767-1.768-5.323-5.322zm-6.552.84a5.631 5.631 0 01-5.625-5.625A5.631 5.631 0 018.456 2.5a5.631 5.631 0 015.625 5.625 5.631 5.631 0 01-5.625 5.625z"/></symbol></svg>