<svg width="28" height="21" viewBox="0 0 28 21" fill="none" xmlns="http://www.w3.org/2000/svg">
<path d="M26.8672 12.8496V13.8496H27.8672V12.8496H26.8672ZM1.16008 12.1425C0.769556 12.533 0.769556 13.1662 1.16008 13.5567L7.52404 19.9207C7.91457 20.3112 8.54773 20.3112 8.93826 19.9207C9.32878 19.5302 9.32878 18.897 8.93826 18.5065L3.2814 12.8496L8.93826 7.19275C9.32878 6.80223 9.32878 6.16906 8.93826 5.77854C8.54773 5.38802 7.91457 5.38802 7.52404 5.77854L1.16008 12.1425ZM25.8672 0.849609V12.8496H27.8672V0.849609H25.8672ZM26.8672 11.8496H1.86719V13.8496H26.8672V11.8496Z" fill="white"/>
</svg>
