<svg width="26" height="22" viewBox="0 0 26 22" fill="none" xmlns="http://www.w3.org/2000/svg">
<path d="M20.7535 8.08334L20.6045 7.8666L15.5523 0.518151L15.5523 0.518084C15.5393 0.499162 15.5133 0.494358 15.4944 0.507352L14.6015 1.12103C14.6015 1.12104 14.6015 1.12104 14.6015 1.12104C14.5825 1.1341 14.5777 1.16002 14.5907 1.17895L20.7535 8.08334ZM20.7535 8.08334H21.0165M20.7535 8.08334H21.0165M21.0165 8.08334H25.4583M21.0165 8.08334H25.4583M11.3985 1.12106L11.3985 1.12105L10.5055 0.507359L10.5055 0.507352C10.4866 0.494358 10.4607 0.499162 10.4477 0.518085L10.4476 0.518149L5.39554 7.8666L5.24653 8.08334H4.98352H0.541684C0.518644 8.08334 0.5 8.10199 0.5 8.12502V9.20834C0.5 9.23135 0.518674 9.25002 0.541684 9.25002H1.22891H1.59452L1.70537 9.59842L5.01659 20.0052C5.23835 20.701 5.87529 21.1667 6.60476 21.1667H19.3953C20.1247 21.1667 20.7617 20.7011 20.9834 20.0047L24.2946 9.59842L24.4055 9.25002H24.7711H25.4584C25.4814 9.25002 25.5 9.23135 25.5 9.20834V8.12511L11.3985 1.12106ZM11.3985 1.12106C11.4175 1.13407 11.4223 1.15995 11.4093 1.17895L11.3985 1.12106ZM25.4583 8.08334C25.4813 8.08334 25.5 8.10194 25.5 8.12502L25.4583 8.08334ZM18.799 7.30007L14.5907 1.179H11.4093L7.201 7.30007L6.66251 8.08334H7.61302H18.387H19.3375L18.799 7.30007Z" stroke="white"/>
</svg>
