<svg width="26" height="22" viewBox="0 0 26 22" fill="none" xmlns="http://www.w3.org/2000/svg">
<path d="M25.4583 7.87484H21.0165L15.9644 0.526388C15.7949 0.279896 15.4577 0.217384 15.2112 0.386791L14.3183 1.00048C14.0717 1.16994 14.0092 1.50718 14.1787 1.75372L18.387 7.87484H7.61302L11.8213 1.75372C11.9908 1.50718 11.9283 1.16994 11.6817 1.00048L10.7887 0.386791C10.5422 0.217384 10.205 0.279896 10.0356 0.526388L4.98352 7.87484H0.541684C0.242531 7.87484 0 8.11732 0 8.41653V9.49984C0 9.79899 0.242531 10.0415 0.541684 10.0415H1.22891L4.5402 20.4485C4.82798 21.3515 5.65739 21.9582 6.60476 21.9582H19.3953C20.3427 21.9582 21.1721 21.3515 21.4599 20.448L24.7711 10.0415H25.4584C25.7575 10.0415 26 9.79899 26 9.49984V8.41653C26 8.11732 25.7575 7.87484 25.4583 7.87484Z" fill="#F35321"/>
</svg>
