<svg width="31" height="18" viewBox="0 0 31 18" fill="none" xmlns="http://www.w3.org/2000/svg">
<path d="M11.1823 12.3996C9.79753 12.3996 8.67847 13.5226 8.67847 14.9074C8.67847 16.2881 9.79753 17.4112 11.1823 17.4112C12.567 17.4112 13.6861 16.2881 13.6861 14.9074C13.6861 13.5226 12.567 12.3996 11.1823 12.3996ZM11.1823 16.1593C10.4899 16.1593 9.93033 15.5957 9.93033 14.9073C9.93033 14.215 10.4899 13.6554 11.1823 13.6554C11.8746 13.6554 12.4342 14.215 12.4342 14.9073C12.4342 15.5957 11.8746 16.1593 11.1823 16.1593ZM30.0664 10.5472V13.2207C30.0664 13.8876 29.5258 14.4283 28.8588 14.4283H27.5666C27.3331 12.8262 25.9524 11.5944 24.2859 11.5944C22.6234 11.5944 21.2426 12.8262 21.0092 14.4283H14.4598C14.2263 12.8262 12.8456 11.5944 11.1831 11.5944C9.52057 11.5944 8.13984 12.8262 7.90641 14.4283H6.28817C5.62121 14.4283 5.08057 13.8877 5.08057 13.2207V10.5472H30.0664ZM24.2891 12.3996C22.9043 12.3996 21.7813 13.5226 21.7813 14.9074C21.7813 16.2881 22.9044 17.4112 24.2891 17.4112C25.6698 17.4112 26.7929 16.2881 26.7929 14.9074C26.7929 13.5226 25.6698 12.3996 24.2891 12.3996ZM24.2891 16.1593C23.5967 16.1593 23.0372 15.5957 23.0372 14.9073C23.0372 14.215 23.5967 13.6554 24.2891 13.6554C24.9774 13.6554 25.541 14.215 25.541 14.9073C25.541 15.5957 24.9774 16.1593 24.2891 16.1593ZM29.5906 7.8548L24.8446 3.16112C24.5427 2.86323 24.1362 2.69416 23.7135 2.69416H21.3184V1.79646C21.3184 1.12828 20.779 0.588867 20.1108 0.588867H6.28734C5.62312 0.588867 5.07974 1.12833 5.07974 1.79646V1.98568L0.179151 2.55048L8.86278 3.68127L0.0664062 4.55509L8.8318 5.80132L0.0664062 6.56132L5.08003 7.50691L5.07969 9.8796H30.0656V8.99798C30.0656 8.56725 29.8925 8.15671 29.5906 7.8548ZM27.5215 8.01176H22.9285C22.8239 8.01176 22.7393 7.92725 22.7393 7.82259V4.27617C22.7393 4.17151 22.8239 4.08695 22.9285 4.08695H23.802C23.8503 4.08695 23.8987 4.1071 23.9349 4.13931L27.6504 7.68573C27.7751 7.80244 27.6905 8.01176 27.5215 8.01176Z" fill="white"/>
</svg>
