<svg width="42" height="31" viewBox="0 0 42 31" fill="none" xmlns="http://www.w3.org/2000/svg">
<path d="M0 0.0585938V30.0586H41.483V0.0585938H0ZM39.0524 2.48924V4.92377H2.43065V2.48924H39.0524ZM39.0524 7.35442V9.78896H2.43065V7.35442H39.0524ZM2.43065 27.6279V12.2196H39.0524V27.6279H2.43065Z" fill="#F35321"/>
<path d="M32.5631 17.0867C31.6777 17.0867 30.8247 17.3822 30.1315 17.9009C29.4533 17.39 28.6104 17.0867 27.6979 17.0867C25.4629 17.0867 23.6445 18.905 23.6445 21.14C23.6445 23.3751 25.4628 25.1934 27.6979 25.1934C28.6104 25.1934 29.4533 24.89 30.1315 24.3792C30.8247 24.8978 31.6777 25.1934 32.5631 25.1934C34.7981 25.1934 36.6164 23.3751 36.6164 21.14C36.6164 18.905 34.7981 17.0867 32.5631 17.0867ZM27.6979 22.7627C26.8032 22.7627 26.0752 22.0348 26.0752 21.14C26.0752 20.2452 26.8031 19.5173 27.6979 19.5173C28.5927 19.5173 29.3206 20.2452 29.3206 21.14C29.3206 22.0348 28.5926 22.7627 27.6979 22.7627ZM32.5631 22.7627C32.1848 22.7627 31.8305 22.6344 31.5475 22.4065C31.679 22.0078 31.7512 21.5823 31.7512 21.1401C31.7512 20.6979 31.679 20.2724 31.5475 19.8737C31.8305 19.6457 32.1848 19.5175 32.5631 19.5175C33.4578 19.5175 34.1858 20.2454 34.1858 21.1402C34.1858 22.035 33.4578 22.7627 32.5631 22.7627Z" fill="#F35321"/>
<path d="M4.85938 22.7627H15.8744V25.1933H4.85938V22.7627Z" fill="#F35321"/>
<path d="M4.85938 17.8975H15.8744V20.3281H4.85938V17.8975Z" fill="#F35321"/>
</svg>
