<svg width="19" height="19" viewBox="0 0 19 19" fill="none" xmlns="http://www.w3.org/2000/svg">
<path d="M9.73145 0.591309C4.76088 0.591309 0.731445 4.62074 0.731445 9.59131C0.731445 14.5619 4.76088 18.5913 9.73145 18.5913C14.702 18.5913 18.7314 14.5619 18.7314 9.59131C18.7314 4.62074 14.702 0.591309 9.73145 0.591309ZM9.73145 17.0093C5.64116 17.0093 2.31348 13.6816 2.31348 9.59131C2.31348 5.50102 5.64116 2.17334 9.73145 2.17334C13.8217 2.17334 17.1494 5.50102 17.1494 9.59131C17.1494 13.6816 13.8217 17.0093 9.73145 17.0093Z" fill="#273A60" fill-opacity="0.25"/>
<path d="M9.73145 3.22803C6.22271 3.22803 3.36816 6.08257 3.36816 9.59131C3.36816 13.1 6.22271 15.9546 9.73145 15.9546C13.2402 15.9546 16.0947 13.1 16.0947 9.59131C16.0947 6.08257 13.2402 3.22803 9.73145 3.22803ZM10.2588 9.80973L6.72348 13.345L5.97771 12.5993L9.2041 9.37288V4.81006H10.2588V9.80973Z" fill="#273A60" fill-opacity="0.25"/>
</svg>
