<svg width="41" height="40" viewBox="0 0 41 40" fill="none" xmlns="http://www.w3.org/2000/svg">
<g clip-path="url(#clip0)">
<path d="M24.3785 7.59728V4.48333C24.3785 -1.49477 0.742188 -1.49477 0.742188 4.48333V22.6969C0.742188 25.047 4.42085 26.512 8.84637 27.0328C7.22765 27.7587 6.19674 28.7394 6.19674 29.9823V35.4464C6.19674 38.4355 12.1422 39.9998 18.015 39.9998C23.8877 39.9998 29.8332 38.4354 29.8332 35.4464V32.6993C35.3946 32.5464 40.7423 30.9958 40.7423 28.161V11.7688C40.7422 7.99478 31.3249 6.60617 24.3785 7.59728ZM12.5604 1.81793C19.0306 1.81793 22.5604 3.61921 22.5604 4.54521C22.5604 5.4712 19.0305 7.27248 12.5604 7.27248C6.09029 7.27248 2.56043 5.4712 2.56043 4.54521C2.56034 3.6193 6.0902 1.81793 12.5604 1.81793ZM2.56034 7.07501C4.76628 8.40268 8.6737 9.09072 12.5603 9.09072C16.4469 9.09072 20.3544 8.40268 22.5604 7.07501V7.97842C19.4011 8.67907 17.1058 9.95859 17.1058 11.818V12.3559C15.6811 12.5844 14.1432 12.727 12.5604 12.727C6.0902 12.727 2.56043 10.9257 2.56043 9.99975V7.07501H2.56034ZM18.924 25.2568C19.097 25.3609 19.277 25.462 19.4702 25.5582C19.2882 25.5506 19.1066 25.5432 18.924 25.5384V25.2568ZM2.56034 12.5296C4.76628 13.8572 8.6737 14.5453 12.5603 14.5453C14.134 14.5453 15.6635 14.404 17.1057 14.1885V18.7195C15.681 18.9481 14.1431 19.0907 12.5603 19.0907C6.09012 19.0907 2.56034 17.2894 2.56034 16.3634V12.5296ZM2.56034 22.7271V18.8932C4.76628 20.2209 8.6737 20.9089 12.5603 20.9089C14.134 20.9089 15.6635 20.7676 17.1057 20.5522V25.0832C15.681 25.3118 14.1431 25.4544 12.5603 25.4544C6.0902 25.4544 2.56034 23.653 2.56034 22.7271ZM28.0149 35.4543C28.0149 36.3803 24.4851 38.1816 18.015 38.1816C11.5448 38.1816 8.01489 36.3803 8.01489 35.4543V32.5295C10.2208 33.8572 14.1282 34.5452 18.0149 34.5452C21.7352 34.5452 25.4797 33.9164 27.7283 32.6984C27.8227 32.702 27.92 32.7024 28.0148 32.7053V35.4543H28.0149ZM18.015 32.7271C11.5448 32.7271 8.01498 30.9258 8.01498 29.9998C8.01498 29.0738 11.5448 27.2725 18.015 27.2725C24.4851 27.2725 28.0149 29.0738 28.0149 29.9998C28.0149 30.9258 24.4851 32.7271 18.015 32.7271ZM38.924 28.1816C38.924 29.0615 35.7028 30.7136 29.8331 30.8774V29.9998C29.8331 28.864 28.9736 27.9459 27.5871 27.2424C28.0316 27.2604 28.4775 27.2725 28.924 27.2725C32.8106 27.2725 36.7181 26.5845 38.9239 25.2568V28.1816H38.924ZM38.924 22.7271C38.924 23.6531 35.3942 25.4544 28.9241 25.4544C22.4539 25.4544 18.9241 23.6531 18.9241 22.7271V19.8023C21.1299 21.1299 25.0374 21.818 28.9241 21.818C32.8107 21.818 36.7182 21.1299 38.924 19.8023V22.7271ZM38.924 17.2725C38.924 18.1985 35.3942 19.9998 28.9241 19.9998C22.4539 19.9998 18.9241 18.1985 18.9241 17.2725V14.3477C21.1299 15.6754 25.0374 16.3634 28.9241 16.3634C32.8107 16.3634 36.7182 15.6754 38.924 14.3477V17.2725ZM28.9241 14.5453C22.4538 14.5453 18.9241 12.744 18.9241 11.818C18.9241 10.892 22.4539 9.09072 28.9241 9.09072C35.3942 9.09072 38.924 10.892 38.924 11.818C38.924 12.744 35.3942 14.5453 28.9241 14.5453Z" fill="#F35321"/>
</g>
<defs>
<clipPath id="clip0">
<rect x="0.742188" width="40" height="40" fill="white"/>
</clipPath>
</defs>
</svg>
