<svg width="19" height="14" viewBox="0 0 19 14" fill="none" xmlns="http://www.w3.org/2000/svg">
<path d="M18.7513 2.11914L13.8965 6.95489L18.7489 11.7872C18.7754 11.4521 18.7639 2.2771 18.7513 2.11914Z" fill="white" fill-opacity="0.25"/>
<path d="M17.0025 0.5H2.52772C2.05687 0.499965 1.62361 0.68545 1.30713 0.988709C4.60585 4.2745 6.33132 5.99315 9.34984 8.99987C9.57885 9.22888 9.95059 9.22909 10.1796 9.00082C13.2173 5.97501 15.2082 3.99191 18.2203 0.991522C17.9018 0.683938 17.4709 0.5 17.0025 0.5Z" fill="white" fill-opacity="0.25"/>
<path d="M0.779376 2.11963C0.766227 2.28163 0.754415 11.4547 0.781485 11.7897L5.64297 6.96413L0.779376 2.11963Z" fill="white" fill-opacity="0.25"/>
<path d="M13.0649 7.7832L11.0087 9.83138C10.3236 10.5165 9.20964 10.5194 8.52078 9.8306L6.47437 7.7922L1.31152 12.917C1.628 13.2208 2.05536 13.41 2.52772 13.41H17.0025C17.4752 13.41 17.903 13.2205 18.2195 12.9163L13.0649 7.7832Z" fill="white" fill-opacity="0.25"/>
</svg>
