<svg width="183" height="200" viewBox="0 0 183 200" fill="none" xmlns="http://www.w3.org/2000/svg">
<path d="M18.2041 44.7102C18.0692 44.4369 18.0354 44.3002 18.0017 44.2661C11.5561 40.269 8.55268 34.0514 7.06784 26.8773C5.92047 21.3088 5.75174 15.7061 6.42666 10.0693C6.56165 9.04437 6.89911 8.36111 7.84401 7.88284C17.5292 2.96342 27.6869 -0.657826 38.2495 -3.11754C38.4857 -3.18586 38.7557 -3.11754 39.2619 -3.11754C39.2619 -2.09266 39.2281 -1.10194 39.2619 -0.0770607C39.3969 4.70571 39.4644 9.48848 39.6668 14.2371C39.7343 15.6719 40.1393 17.1068 40.578 18.4733C42.3328 24.1443 45.6062 26.8089 51.4781 27.0823C57.3499 27.3897 62.8506 25.9207 67.8788 22.7778C71.9959 20.2156 74.2569 16.4918 74.1894 11.5382C74.1556 6.68714 74.0206 1.80188 73.9194 -3.04921C73.8857 -4.65486 73.7844 -6.2605 73.6832 -8.10529C85.5282 -11.1799 97.2382 -10.9066 109.184 -8.13945C109.049 -6.70462 108.948 -5.47476 108.813 -4.21074C108.273 1.90437 107.97 8.05365 108.914 14.1688C109.387 17.2092 110.838 19.669 113.2 21.4454C119.545 26.194 126.631 27.9705 134.46 26.5698C137.194 26.0915 139.219 24.5201 140.602 22.0603C142.155 19.3273 142.965 16.3893 143.167 13.3147C143.471 8.80523 143.538 4.29576 143.673 -0.247874C143.707 -1.17027 143.673 -2.09266 143.673 -3.22003C144.517 -3.11754 145.158 -3.11754 145.799 -2.94672C155.552 -0.487013 165.001 2.92925 174.011 7.47289C175.26 8.12198 175.867 8.83939 176.036 10.3425C176.576 15.5694 176.441 20.728 175.496 25.8866C174.112 33.4365 171.278 40.0982 164.225 44.3344C164.528 44.8127 164.697 45.291 165.001 45.5984C169.692 50.6887 172.796 56.7355 174.754 63.363C177.993 74.2609 180.221 85.3638 181.537 96.6716C182.853 108.082 182.718 119.492 181.638 130.937C181.199 135.446 180.997 139.956 180.49 144.465C180.153 147.437 179.681 150.409 178.904 153.279C176.61 161.854 174.214 170.395 169.962 178.252C163.111 190.892 153.021 199.775 139.455 204.421C131.896 207.017 124.134 208.452 116.204 209.033C102.131 210.023 88.0254 209.682 73.9532 209.34C63.2893 209.067 52.7942 207.495 42.7378 203.669C26.6745 197.554 15.6394 186.212 8.99139 170.326C4.33438 159.189 1.97214 147.54 1.4322 135.515C1.09474 127.828 0.622287 120.176 0.521048 112.489C0.352316 95.5442 3.08577 79.0095 7.97899 62.8164C9.97003 56.2913 13.0747 50.3812 17.7992 45.3934C17.9004 45.2226 18.0354 44.9835 18.2041 44.7102ZM91.2313 183.616C98.4868 183.445 105.911 183.308 113.301 183.103C118.971 182.966 124.539 182.044 130.006 180.507C136.823 178.594 142.087 174.733 145.495 168.277C148.229 163.084 149.984 157.618 151.232 151.947C153.088 143.509 153.763 134.9 154 126.291C154.405 111.532 154.54 96.7399 152.211 82.0841C151.199 75.6616 149.478 69.444 146.812 63.4997C142.965 54.8907 136.519 49.8346 127.407 47.9898C122.177 46.9308 116.912 46.145 111.614 46.1109C98.1156 46.0084 84.617 45.9742 71.1522 46.1109C65.0779 46.1792 59.0373 46.9308 53.1654 48.5706C46.8886 50.3129 41.4217 53.3875 37.9458 59.1952C36.4609 61.6549 35.2461 64.3195 34.2337 67.0184C30.8253 76.1398 29.6104 85.7054 29.2055 95.3734C28.5643 110.883 28.4293 126.427 30.0829 141.937C30.859 149.145 32.2426 156.251 34.5374 163.152C37.7771 172.854 44.4251 178.525 54.1103 180.917C59.3747 182.215 64.6729 183.035 70.1061 183.171C77.0578 183.274 84.0771 183.445 91.2313 183.616Z" fill="#EAEBEE"/>
<path d="M109.25 61.6882C117.687 61.6882 125.752 61.6882 133.818 61.6882C134.358 63.713 134.391 160.261 133.885 162.759C125.786 162.759 117.653 162.759 109.284 162.759C109.284 161.679 109.284 160.768 109.284 159.856C109.284 148.889 109.284 137.921 109.284 126.954C109.284 126.211 109.318 125.435 109.25 124.693C109.115 122.33 108.339 121.318 105.977 120.947C103.986 120.643 101.961 120.474 99.9362 120.474C92.8495 120.508 85.7627 120.609 78.676 120.711C78.1698 120.711 77.6636 120.778 77.1574 120.846C74.3902 121.284 73.5128 122.195 73.3103 124.963C73.2428 125.874 73.2766 126.819 73.2766 127.73C73.2766 138.36 73.2766 148.99 73.2766 159.62C73.2766 160.599 73.2766 161.611 73.2766 162.759C65.0762 162.759 57.1795 162.759 49.3166 162.759C48.7767 160.936 48.6417 65.0966 49.1816 61.7557C57.0445 61.7557 64.9074 61.7557 73.1078 61.7557C73.1753 62.6331 73.2766 63.5105 73.2766 64.3879C73.2766 73.2295 73.2766 82.1048 73.2766 90.9464C73.2766 91.8575 73.2766 92.8024 73.344 93.7136C73.614 96.3458 74.4577 97.2569 77.1236 97.5944C78.9459 97.8306 80.802 97.9993 82.6581 98.0331C88.4624 98.1006 94.3006 98.1006 100.105 98.0331C101.86 98.0331 103.648 97.8644 105.403 97.6281C108.305 97.2907 109.216 96.2783 109.216 93.3086C109.25 86.2219 109.25 79.1351 109.25 72.0484C109.25 68.7075 109.25 65.3666 109.25 61.6882Z" fill="#EAEBEE"/>
</svg>
