<svg width="21" height="21" viewBox="0 0 21 21" fill="none" xmlns="http://www.w3.org/2000/svg">
<path d="M19.8159 10.2658C20.1784 9.86709 20.1434 9.25595 19.7377 8.90116L10.7994 1.08014C10.3937 0.725345 9.74327 0.732777 9.3461 1.09689L0.377463 9.31815C-0.0197031 9.68226 -0.0391963 10.2926 0.334304 10.6809L0.559161 10.915C0.932205 11.3033 1.53519 11.3496 1.90511 11.0181L2.57537 10.4179V19.2056C2.57537 19.7448 3.01224 20.1812 3.55101 20.1812H7.04701C7.58578 20.1812 8.02265 19.7448 8.02265 19.2056V13.0577H12.4818V19.2056C12.4741 19.7444 12.8596 20.1808 13.3983 20.1808H17.1032C17.642 20.1808 18.0789 19.7444 18.0789 19.2052V10.5416C18.0789 10.5416 18.264 10.7038 18.4924 10.9045C18.7204 11.1049 19.1992 10.9442 19.5618 10.5451L19.8159 10.2658Z" fill="#FF4C00"/>
</svg>
