<svg width="17" height="16" viewBox="0 0 17 16" fill="none" xmlns="http://www.w3.org/2000/svg">
<path d="M12.7385 0.5C10.9234 0.5 9.42429 2.1859 8.81804 2.98158C8.21178 2.1859 6.71266 0.5 4.89758 0.5C2.54786 0.5 0.63623 2.66032 0.63623 5.31534C0.63623 6.76388 1.21119 8.11387 2.21759 9.03771C2.23223 9.06303 2.25022 9.08633 2.27119 9.10729L8.57734 15.4004C8.64392 15.4667 8.73082 15.5 8.81804 15.5C8.90526 15.5 8.99248 15.4667 9.05908 15.4001L15.575 8.88657L15.6422 8.82131C15.6955 8.77104 15.7481 8.72009 15.807 8.65486C15.8316 8.63057 15.8519 8.60325 15.8676 8.57362C16.5984 7.67874 16.9998 6.52449 16.9998 5.31534C16.9998 2.66032 15.0882 0.5 12.7385 0.5Z" fill="#F35321"/>
</svg>
