<svg width="17" height="15" viewBox="0 0 17 15" fill="none" xmlns="http://www.w3.org/2000/svg">
<path d="M7.87492 2.78461L8.27263 3.30659L8.67034 2.78461C8.9593 2.40535 9.45515 1.8226 10.0843 1.33877C10.7177 0.851698 11.4402 0.5 12.1931 0.5C14.211 0.5 15.9544 2.37726 15.9544 4.81534C15.9544 5.91487 15.5893 6.95602 14.9349 7.75737L14.9034 7.79594L14.8913 7.81891L14.8905 7.81977C14.8447 7.87043 14.8033 7.91082 14.7536 7.95766L14.7536 7.95762L14.7486 7.96251L14.6813 8.02777L14.6813 8.02773L14.6761 8.03296L8.27255 14.4342L2.09402 8.2684L2.06669 8.22114L2.0103 8.16938C1.11347 7.34611 0.59082 6.13278 0.59082 4.81534C0.59082 2.37726 2.33429 0.5 4.35217 0.5C5.10504 0.5 5.8275 0.851698 6.46092 1.33877C7.0901 1.8226 7.58595 2.40535 7.87492 2.78461Z" stroke="#F35321"/>
</svg>
