<svg width="12" height="18" viewBox="0 0 12 18" fill="none" xmlns="http://www.w3.org/2000/svg">
<path d="M5.86567 0.263428C2.63136 0.263428 0 2.89479 0 6.1291C0 10.1943 5.87144 17.1384 5.87144 17.1384C5.87144 17.1384 11.7313 9.99436 11.7313 6.1291C11.7313 2.89479 9.10008 0.263428 5.86567 0.263428ZM7.63546 7.84657C7.14746 8.33446 6.50662 8.57846 5.86567 8.57846C5.22482 8.57846 4.58377 8.33446 4.09598 7.84657C3.12008 6.87078 3.12008 5.28298 4.09598 4.30708C4.56853 3.83433 5.19712 3.57395 5.86567 3.57395C6.53422 3.57395 7.16271 3.83443 7.63546 4.30708C8.61136 5.28298 8.61136 6.87078 7.63546 7.84657Z" fill="#273A60" fill-opacity="0.25"/>
</svg>
