<svg width="20" height="34" viewBox="0 0 20 34" fill="none" xmlns="http://www.w3.org/2000/svg">
<path d="M1.53131 31.846H2.21809V30.0242C2.21809 29.6021 2.55311 29.26 2.96622 29.26H3.77765V24.4894V23.1504C3.77765 21.1785 4.75066 19.3701 6.38039 18.313L8.25596 17.0963L8.15077 16.9898L6.38054 15.8414C4.75082 14.7843 3.7778 12.9759 3.7778 11.004V4.89455H2.96637C2.55326 4.89455 2.21824 4.55252 2.21824 4.13041V2.30855H1.53146C1.11834 2.30855 0.783325 1.96652 0.783325 1.54441C0.783325 1.1223 1.11834 0.780273 1.53146 0.780273H2.96637H17.4532H18.8881C19.3012 0.780273 19.6362 1.1223 19.6362 1.54441C19.6362 1.96652 19.3012 2.30855 18.8881 2.30855H18.2013V4.13041C18.2013 4.55252 17.8663 4.89455 17.4532 4.89455H16.6418V11.0041C16.6418 12.9761 15.6687 14.7845 14.0392 15.8416L12.4887 16.8474L12.1922 17.1151L14.0392 18.3131C15.6689 19.3702 16.6418 21.1786 16.6418 23.1506V24.4895V29.2602H17.4532C17.8663 29.2602 18.2013 29.6022 18.2013 30.0243V31.8462H18.8881C19.3012 31.8462 19.6362 32.1882 19.6362 32.6103C19.6362 33.0324 19.3012 33.3745 18.8881 33.3745H17.4532H2.96637H1.53146C1.11834 33.3745 0.783325 33.0324 0.783325 32.6103C0.783176 32.1882 1.11819 31.846 1.53131 31.846ZM5.27391 23.1506V23.3661L9.4615 21.6766V18.1111C9.41766 18.1484 9.37127 18.1834 9.3222 18.2152L7.18239 19.6031C5.98748 20.3783 5.27391 21.7045 5.27391 23.1506ZM5.27391 4.89455V11.0041C5.27391 11.6479 5.41605 12.2674 5.67835 12.8257H14.7409C15.0032 12.2674 15.1453 11.6479 15.1453 11.004V4.89455H5.27391ZM13.2367 19.6031L11.0972 18.2153C11.0481 18.1834 11.0017 18.1485 10.9578 18.1112V21.6779L15.1453 23.3664V23.1506C15.1453 21.7045 14.4319 20.3783 13.2367 19.6031Z" fill="white" fill-opacity="0.5"/>
</svg>
