<svg width="16" height="15" viewBox="0 0 16 15" fill="none" xmlns="http://www.w3.org/2000/svg">
<path d="M9.87842 5.08134L9.99759 5.35534L10.2953 5.38019L15.0511 5.77708L11.4552 8.80357L11.219 9.00232L11.2908 9.3025L12.373 13.8241L8.26097 11.415L8.00822 11.2669L7.75547 11.415L3.64339 13.8241L4.72559 9.3025L4.79743 9.00233L4.56129 8.80358L0.964512 5.77631L5.7203 5.37942L6.01804 5.35457L6.13721 5.0806L8.00781 0.780388L9.87842 5.08134ZM15.2695 5.59332L15.2692 5.59352L15.2695 5.59332ZM3.58263 14.0779L3.58263 14.0779L3.58263 14.0779ZM8.37282 0.365985L10.3369 4.88192L8.37282 0.365985Z" stroke="#F35321"/>
</svg>
