<svg width="22" height="26" viewBox="0 0 22 26" fill="none" xmlns="http://www.w3.org/2000/svg">
<path d="M2.07098 6.70392C2.05517 6.67286 2.05122 6.65733 2.04727 6.65345C1.29271 6.19924 0.941105 5.4927 0.767279 4.67745C0.632959 4.04466 0.613206 3.408 0.692218 2.76745C0.70802 2.65098 0.747526 2.57334 0.858143 2.51899C1.99196 1.95997 3.18109 1.54846 4.41763 1.26895C4.44529 1.26118 4.47689 1.26895 4.53615 1.26895C4.53615 1.38541 4.5322 1.49799 4.53615 1.61446C4.55195 2.15795 4.55985 2.70145 4.58356 3.24107C4.59146 3.40411 4.63886 3.56716 4.69022 3.72245C4.89565 4.36688 5.27886 4.66969 5.96626 4.70074C6.65367 4.73568 7.29762 4.56875 7.88626 4.2116C8.36823 3.92044 8.63292 3.49728 8.62502 2.93438C8.62107 2.38312 8.60526 1.82797 8.59341 1.27671C8.58946 1.09425 8.57761 0.911793 8.56576 0.702158C9.95242 0.352767 11.3233 0.383824 12.7218 0.698276C12.706 0.861325 12.6941 1.00108 12.6783 1.14472C12.6151 1.83962 12.5796 2.5384 12.6902 3.2333C12.7455 3.57881 12.9154 3.85832 13.1919 4.06019C13.9346 4.59981 14.7642 4.80168 15.6808 4.64251C16.0008 4.58816 16.2378 4.40958 16.3998 4.13007C16.5815 3.8195 16.6763 3.48564 16.7 3.13625C16.7356 2.62381 16.7435 2.11137 16.7593 1.59505C16.7632 1.49023 16.7593 1.38541 16.7593 1.2573C16.8581 1.26895 16.9331 1.26895 17.0082 1.28836C18.1499 1.56787 19.2561 1.95608 20.3109 2.47241C20.4571 2.54617 20.5282 2.62769 20.5479 2.7985C20.6111 3.39247 20.5953 3.97867 20.4847 4.56487C20.3227 5.42282 19.9909 6.17983 19.1652 6.66121C19.2008 6.71556 19.2205 6.76991 19.2561 6.80485C19.8052 7.38329 20.1687 8.07042 20.3978 8.82355C20.7771 10.062 21.0378 11.3236 21.1919 12.6086C21.3459 13.9053 21.3301 15.2019 21.2037 16.5024C21.1524 17.0148 21.1287 17.5273 21.0694 18.0397C21.0299 18.3775 20.9746 18.7152 20.8837 19.0413C20.6151 20.0157 20.3346 20.9862 19.8368 21.8791C19.0348 23.3155 17.8536 24.3249 16.2655 24.8528C15.3805 25.1479 14.4719 25.3109 13.5435 25.3769C11.8961 25.4895 10.2448 25.4507 8.59736 25.4119C7.34897 25.3808 6.12034 25.2022 4.94306 24.7674C3.06258 24.0725 1.77073 22.7837 0.992463 20.9785C0.447281 19.7129 0.170739 18.3891 0.107529 17.0226C0.0680235 16.1491 0.0127153 15.2795 0.00086347 14.406C-0.0188895 12.4805 0.301108 10.6016 0.873945 8.76144C1.10703 8.01996 1.47049 7.34835 2.02357 6.78156C2.03542 6.76215 2.05122 6.73497 2.07098 6.70392ZM10.6201 22.4886C11.4694 22.4692 12.3386 22.4537 13.2038 22.4304C13.8675 22.4149 14.5193 22.31 15.1593 22.1353C15.9573 21.9179 16.5736 21.4793 16.9726 20.7455C17.2926 20.1555 17.4981 19.5343 17.6442 18.8899C17.8615 17.931 17.9405 16.9527 17.9682 15.9744C18.0156 14.2973 18.0314 12.6164 17.7588 10.951C17.6403 10.2211 17.4388 9.51457 17.1267 8.83908C16.6763 7.86079 15.9218 7.28624 14.8551 7.0766C14.2428 6.95626 13.6265 6.86697 13.0062 6.86308C11.426 6.85144 9.84575 6.84756 8.26946 6.86308C7.55836 6.87085 6.8512 6.95625 6.16379 7.1426C5.42898 7.34059 4.78899 7.68998 4.38208 8.34994C4.20825 8.62945 4.06603 8.93225 3.94751 9.23894C3.5485 10.2755 3.40628 11.3625 3.35887 12.4611C3.28381 14.2236 3.26801 15.9899 3.46159 17.7524C3.55245 18.5716 3.71443 19.379 3.98307 20.1632C4.36232 21.2658 5.14059 21.9102 6.27441 22.1819C6.89071 22.3295 7.51095 22.4226 8.14699 22.4382C8.96082 22.4498 9.78254 22.4692 10.6201 22.4886Z" fill="#273A60"/>
<path d="M12.7295 8.73438C13.7172 8.73438 14.6614 8.73438 15.6056 8.73438C15.6688 8.9673 15.6727 20.074 15.6135 20.3613C14.6653 20.3613 13.7132 20.3613 12.7335 20.3613C12.7335 20.2371 12.7335 20.1323 12.7335 20.0275C12.7335 18.7658 12.7335 17.5041 12.7335 16.2424C12.7335 16.157 12.7374 16.0677 12.7295 15.9823C12.7137 15.7105 12.6229 15.5941 12.3463 15.5514C12.1132 15.5164 11.8762 15.497 11.6392 15.497C10.8095 15.5009 9.97992 15.5126 9.15029 15.5242C9.09103 15.5242 9.03177 15.532 8.97251 15.5397C8.64856 15.5902 8.54585 15.695 8.52215 16.0134C8.51424 16.1182 8.51819 16.2269 8.51819 16.3317C8.51819 17.5546 8.51819 18.7774 8.51819 20.0003C8.51819 20.1129 8.51819 20.2293 8.51819 20.3613C7.5582 20.3613 6.63376 20.3613 5.71327 20.3613C5.65006 20.1517 5.63426 9.12647 5.69747 8.74214C6.61796 8.74214 7.53845 8.74214 8.49844 8.74214C8.50634 8.84307 8.51819 8.94401 8.51819 9.04494C8.51819 10.0621 8.51819 11.0831 8.51819 12.1002C8.51819 12.205 8.51819 12.3137 8.5261 12.4185C8.5577 12.7213 8.65647 12.8261 8.96856 12.865C9.1819 12.8921 9.39918 12.9115 9.61646 12.9154C10.296 12.9232 10.9794 12.9232 11.6589 12.9154C11.8644 12.9154 12.0737 12.896 12.2792 12.8688C12.6189 12.83 12.7256 12.7135 12.7256 12.3719C12.7295 11.5567 12.7295 10.7414 12.7295 9.92619C12.7295 9.54186 12.7295 9.15753 12.7295 8.73438Z" fill="#273A60"/>
</svg>
