<svg width="17" height="17" viewBox="0 0 17 17" fill="none" xmlns="http://www.w3.org/2000/svg">
<path d="M15.4476 11.1272C14.468 11.1272 13.5062 10.974 12.5947 10.6728C12.1481 10.5204 11.5991 10.6602 11.3265 10.9401L9.52745 12.2982C7.44107 11.1845 6.1559 9.89975 5.0574 7.82904L6.37553 6.07688C6.71799 5.73488 6.84082 5.23529 6.69365 4.76654C6.39115 3.85029 6.23749 2.88892 6.23749 1.90892C6.23753 1.20096 5.66157 0.625 4.95365 0.625H2.01532C1.3074 0.625 0.731445 1.20096 0.731445 1.90887C0.731445 10.0235 7.33303 16.625 15.4476 16.625C16.1555 16.625 16.7315 16.049 16.7315 15.3411V12.411C16.7314 11.7031 16.1555 11.1272 15.4476 11.1272Z" fill="#273A60" fill-opacity="0.25"/>
</svg>
