<svg width="24" height="25" viewBox="0 0 24 25" fill="none" xmlns="http://www.w3.org/2000/svg">
<path d="M24 12.9585C24 6.34191 18.6166 0.958496 12 0.958496C5.38342 0.958496 0 6.34191 0 12.9585C0 16.4533 1.50284 19.6034 3.89498 21.7983L3.88364 21.8084L4.27287 22.1365C4.29818 22.1579 4.32567 22.1754 4.35098 22.1963C4.55782 22.3678 4.77207 22.5306 4.99025 22.6881C5.06095 22.7392 5.13164 22.7902 5.20364 22.84C5.43666 23.0005 5.67578 23.1528 5.92015 23.2973C5.97338 23.3287 6.02705 23.3592 6.08073 23.3898C6.34822 23.5421 6.62138 23.6856 6.90109 23.8174C6.9216 23.827 6.94255 23.8357 6.96305 23.8453C7.87462 24.269 8.84771 24.5802 9.86531 24.7639C9.89193 24.7687 9.91855 24.7735 9.9456 24.7783C10.2615 24.8328 10.5809 24.8765 10.9043 24.9057C10.9436 24.9092 10.9828 24.9114 11.0225 24.9149C11.3446 24.9415 11.6701 24.9585 12 24.9585C12.3268 24.9585 12.6493 24.9415 12.9696 24.9157C13.0102 24.9122 13.0508 24.9101 13.0913 24.9066C13.4121 24.8773 13.7289 24.835 14.0417 24.7813C14.0688 24.7765 14.0963 24.7717 14.1233 24.7665C15.1257 24.5867 16.0848 24.2826 16.9846 23.8698C17.0177 23.8545 17.0513 23.8401 17.0845 23.8244C17.3537 23.6978 17.6169 23.5613 17.8748 23.416C17.9389 23.3797 18.0026 23.3431 18.0663 23.3056C18.3011 23.1672 18.5319 23.0228 18.7562 22.8692C18.8369 22.8142 18.9159 22.7562 18.9958 22.6986C19.1873 22.5607 19.3754 22.4184 19.5583 22.2696C19.5988 22.2369 19.6425 22.2085 19.6822 22.1749L20.0815 21.8415L20.0697 21.8315C22.4828 19.6357 24 16.4712 24 12.9585ZM0.872727 12.9585C0.872727 6.82279 5.86429 1.83122 12 1.83122C18.1357 1.83122 23.1273 6.82279 23.1273 12.9585C23.1273 16.2648 21.6764 19.2373 19.3793 21.2769C19.2511 21.1883 19.1219 21.1089 18.9897 21.0426L15.295 19.1954C14.9633 19.0296 14.7574 18.6962 14.7574 18.3258V17.0354C14.8429 16.9298 14.9332 16.8103 15.0266 16.6789C15.5049 16.0034 15.8884 15.252 16.1681 14.4434C16.721 14.1808 17.078 13.6301 17.078 13.0082V11.4613C17.078 11.083 16.9392 10.716 16.6909 10.4276V8.39108C16.7136 8.16417 16.7939 6.8865 15.8692 5.83224C15.065 4.91413 13.7633 4.44941 12 4.44941C10.2367 4.44941 8.93498 4.91413 8.13076 5.83181C7.20611 6.88606 7.2864 8.16461 7.30909 8.39064V10.4272C7.06124 10.7156 6.92204 11.0826 6.92204 11.4609V13.0078C6.92204 13.4882 7.1376 13.9364 7.50676 14.2388C7.86022 15.6234 8.58764 16.6715 8.85644 17.0267V18.2896C8.85644 18.6456 8.66226 18.9729 8.34938 19.1439L4.89906 21.026C4.78909 21.0858 4.68 21.1556 4.57091 21.2337C2.30225 19.195 0.872727 16.2408 0.872727 12.9585Z" fill="#F35321"/>
</svg>
