<svg width="21" height="20" viewBox="0 0 21 20" fill="none" xmlns="http://www.w3.org/2000/svg">
<path d="M15.0082 12.9095C15.9924 11.5655 16.5811 9.91467 16.5811 8.12503C16.5811 3.64504 12.936 0 8.45605 0C3.97606 0 0.331055 3.64504 0.331055 8.12503C0.331055 12.605 3.9761 16.2501 8.45609 16.2501C10.2457 16.2501 11.8967 15.6613 13.2407 14.6771L18.5636 20L20.3312 18.2324C20.3312 18.2324 15.0082 12.9095 15.0082 12.9095ZM8.45609 13.75C5.35426 13.75 2.83108 11.2269 2.83108 8.12503C2.83108 5.02321 5.35426 2.50002 8.45609 2.50002C11.5579 2.50002 14.0811 5.02321 14.0811 8.12503C14.0811 11.2269 11.5579 13.75 8.45609 13.75Z" fill="white"/>
</svg>
