<svg width="40" height="17" viewBox="0 0 40 17" fill="none" xmlns="http://www.w3.org/2000/svg">
<g clip-path="url(#clip0)">
<rect x="0.412109" y="0.275146" width="38.8235" height="16.5" fill="white"/>
<path fill-rule="evenodd" clip-rule="evenodd" d="M25.3932 13.2971C24.6865 13.4966 23.7661 13.5798 22.9772 13.5798C20.9229 13.5798 19.5752 12.4988 19.5752 10.5197C19.5752 8.64041 20.8407 7.42637 22.6814 7.42637C23.0923 7.42637 23.536 7.47626 23.799 7.60931V4.88184H25.3932V13.2971ZM23.799 9.00629C23.5525 8.88987 23.2073 8.82335 22.8129 8.82335C21.8432 8.82335 21.2023 9.42206 21.2023 10.4698C21.2023 11.5841 21.8926 12.216 23.0265 12.216C23.2237 12.216 23.536 12.216 23.799 12.1495V9.00629ZM38.4921 13.2971C37.7854 13.4966 36.865 13.5798 36.0597 13.5798C34.0217 13.5798 32.6576 12.4988 32.6576 10.5197C32.6576 8.64041 33.9231 7.42637 35.7639 7.42637C36.1912 7.42637 36.6185 7.47626 36.8815 7.60931V4.88184H38.4921V13.2971ZM36.8815 9.00629C36.635 8.88987 36.3062 8.82335 35.9118 8.82335C34.9257 8.82335 34.2847 9.42206 34.2847 10.4698C34.2847 11.5841 34.9914 12.216 36.1255 12.216C36.3227 12.216 36.6185 12.216 36.8815 12.1495V9.00629ZM27.9078 9.00629C28.1708 8.88987 28.5488 8.85661 28.8611 8.85661C29.8472 8.85661 30.521 9.42206 30.521 10.4366C30.521 11.634 29.765 12.1828 28.7624 12.1994V13.5798H28.8446C30.9155 13.5798 32.1481 12.4322 32.1481 10.3867C32.1481 8.52399 30.8333 7.42637 28.8939 7.42637C27.9078 7.42637 26.9381 7.6592 26.2971 7.92528V15.8249H27.9078V9.00629Z" fill="#3F3F42"/>
<path fill-rule="evenodd" clip-rule="evenodd" d="M13.6914 3.58472L13.9543 3.88407L14.1023 3.80092L13.6914 3.58472Z" fill="#DC0032"/>
<path fill-rule="evenodd" clip-rule="evenodd" d="M13.2979 3.36841L13.8073 3.96712L13.9881 3.86734L13.7909 3.6345L13.2979 3.36841Z" fill="#DC0032"/>
<path fill-rule="evenodd" clip-rule="evenodd" d="M12.8867 3.15234L13.6592 4.05042L13.8399 3.95063L13.3962 3.41844L12.8867 3.15234Z" fill="#DC0032"/>
<path fill-rule="evenodd" clip-rule="evenodd" d="M12.4912 2.93604L13.5102 4.13346L13.691 4.03368L12.9843 3.20213L12.4912 2.93604ZM14.447 5.04814L14.3319 5.11467L14.447 5.24772V5.04814Z" fill="#DC0032"/>
<path fill-rule="evenodd" clip-rule="evenodd" d="M12.0977 2.71997L13.3632 4.21676L13.544 4.11697L12.5907 2.98607L12.0977 2.71997ZM14.3821 5.08154L14.2013 5.19796L14.4479 5.49732V5.18133L14.3821 5.08154H14.3821Z" fill="#DC0032"/>
<path fill-rule="evenodd" clip-rule="evenodd" d="M11.6865 2.50366L13.215 4.2998L13.4122 4.20002L12.196 2.76976L11.6865 2.50366ZM14.234 5.16459L14.0532 5.28101L14.4476 5.74668V5.43069L14.234 5.16459Z" fill="#DC0032"/>
<path fill-rule="evenodd" clip-rule="evenodd" d="M11.292 2.28735L13.0834 4.38285L13.2642 4.28306L11.7851 2.55344L11.292 2.28735ZM14.086 5.26427L13.9052 5.36405L14.4475 6.01266V5.69667L14.086 5.26427Z" fill="#DC0032"/>
<path fill-rule="evenodd" clip-rule="evenodd" d="M10.8975 2.07129L12.9354 4.46614L13.1162 4.36635L11.3905 2.33738L10.8975 2.07129ZM13.938 5.34756L13.7572 5.44734L14.4475 6.26226V5.94627L13.938 5.34756Z" fill="#DC0032"/>
<path fill-rule="evenodd" clip-rule="evenodd" d="M10.4863 1.85498L12.7872 4.54918L12.968 4.4494L10.9958 2.12107L10.4863 1.85498ZM13.7898 5.4306L13.609 5.53039L14.4472 6.51161V6.19563L13.7898 5.4306Z" fill="#DC0032"/>
<path fill-rule="evenodd" clip-rule="evenodd" d="M10.0928 1.63892L12.6402 4.64911L12.821 4.53269L10.5858 1.90501L10.0928 1.63892ZM13.6428 5.51389L13.462 5.61368L14.4481 6.77785V6.46186L13.6428 5.51389Z" fill="#DC0032"/>
<path fill-rule="evenodd" clip-rule="evenodd" d="M9.68164 1.42261L12.4921 4.73215L12.6728 4.61574L10.1911 1.6887L9.68164 1.42261ZM13.511 5.59694L13.3138 5.69673L14.4478 7.0272V6.71122L13.511 5.59694Z" fill="#DC0032"/>
<path fill-rule="evenodd" clip-rule="evenodd" d="M9.28711 1.2063L12.3441 4.81518L12.5413 4.69878L9.7966 1.47239L9.28711 1.2063ZM13.363 5.67999L13.1823 5.77977L14.4477 7.29319V6.96057L13.363 5.67999Z" fill="#DC0032"/>
<path fill-rule="evenodd" clip-rule="evenodd" d="M8.89258 0.990234L12.2125 4.89847L12.3933 4.78205L9.38564 1.25633L8.89258 0.990234ZM13.215 5.76328L13.0343 5.86306L14.4477 7.54279V7.2268L13.215 5.76328Z" fill="#DC0032"/>
<path fill-rule="evenodd" clip-rule="evenodd" d="M8.48145 0.757324L12.0643 4.98155L12.2451 4.86513L8.99094 1.04005L8.48145 0.757324ZM13.0669 5.84636L12.8861 5.94614L14.4474 7.79216V7.47619L13.0669 5.84636Z" fill="#DC0032"/>
<path fill-rule="evenodd" clip-rule="evenodd" d="M8.08789 0.54126L11.9173 5.06484L12.0981 4.96505L8.59738 0.823984L8.08789 0.54126ZM12.9198 5.92964L12.7391 6.02943L14.4483 8.05838V7.72579L12.9198 5.92964Z" fill="#DC0032"/>
<path fill-rule="evenodd" clip-rule="evenodd" d="M7.69336 0.341553L11.7693 5.14785L11.9501 5.04807L8.1864 0.607646L7.69336 0.341553ZM12.7718 6.01266L12.591 6.11245L14.4482 8.30771V7.99173L12.7718 6.01266Z" fill="#DC0032"/>
<path fill-rule="evenodd" clip-rule="evenodd" d="M7.42969 0.275146L11.6206 5.23113L11.8014 5.13134L7.79126 0.391562L7.69265 0.34167C7.61048 0.291777 7.5283 0.275146 7.42969 0.275146ZM12.6232 6.09593L12.4424 6.19572L14.4475 8.55729V8.24131L12.6232 6.09593Z" fill="#DC0032"/>
<path fill-rule="evenodd" clip-rule="evenodd" d="M7.42965 0.275146C7.3639 0.275146 7.29816 0.291777 7.23242 0.308408L11.4727 5.31428L11.6699 5.2145L7.47895 0.275146C7.46252 0.275146 7.44608 0.275146 7.42965 0.275146ZM12.4917 6.17909L12.3109 6.27888L14.4475 8.82339V8.49077L12.4917 6.17909Z" fill="#DC0032"/>
<path fill-rule="evenodd" clip-rule="evenodd" d="M7.28218 0.291992C7.24931 0.308623 7.20001 0.325254 7.18357 0.341885L7.08496 0.391777L11.3417 5.39765L11.5224 5.29787L7.28218 0.291992ZM12.3442 6.26246L12.1634 6.37888L14.4479 9.07307V8.75708L12.3442 6.26246Z" fill="#DC0032"/>
<path fill-rule="evenodd" clip-rule="evenodd" d="M7.11829 0.358398L6.9375 0.458183L11.1942 5.48069L11.375 5.3809L7.11829 0.358398ZM12.1967 6.3455L12.016 6.46191L14.4484 9.32241V9.00643L12.1967 6.3455Z" fill="#DC0032"/>
<path fill-rule="evenodd" clip-rule="evenodd" d="M6.96985 0.441406L6.78906 0.541191L11.0458 5.5637L11.2265 5.46391L6.96985 0.441406ZM12.0483 6.42851L11.8675 6.54492L14.4478 9.58836V9.27238L12.0483 6.42851Z" fill="#DC0032"/>
<path fill-rule="evenodd" clip-rule="evenodd" d="M6.82239 0.524414L6.6416 0.6242L10.8983 5.64671L11.0791 5.54692L6.82239 0.524414ZM11.9009 6.51152L11.7201 6.62793L14.4483 9.83769V9.5217L11.9009 6.51152Z" fill="#DC0032"/>
<path fill-rule="evenodd" clip-rule="evenodd" d="M6.67395 0.607666L6.49316 0.707452L10.7499 5.72996L10.9306 5.63017L6.67395 0.607666ZM11.7524 6.59477L11.5716 6.71118L14.4478 10.0872V9.77126L11.7524 6.59477Z" fill="#DC0032"/>
<path fill-rule="evenodd" clip-rule="evenodd" d="M6.52649 0.690918L6.3457 0.790701L10.6024 5.81321L10.7832 5.71342L6.52649 0.690918ZM11.6214 6.67802L11.4406 6.79443L14.4482 10.3534V10.0374L11.6214 6.67802Z" fill="#DC0032"/>
<path fill-rule="evenodd" clip-rule="evenodd" d="M6.37805 0.757324L6.19727 0.873741L10.4704 5.89625L10.6512 5.79646L6.37805 0.757324ZM11.473 6.77769L11.2922 6.87748L14.4477 10.6028V10.2868L11.473 6.77769Z" fill="#DC0032"/>
<path fill-rule="evenodd" clip-rule="evenodd" d="M6.23059 0.840576L6.0498 0.940362L10.323 5.9795L10.5037 5.87971L6.23059 0.840576ZM11.3255 6.86094L11.1447 6.96073L14.4482 10.869V10.5364L11.3255 6.86094Z" fill="#DC0032"/>
<path fill-rule="evenodd" clip-rule="evenodd" d="M6.08216 0.923828L5.90137 1.02361L10.1745 6.07938L10.3553 5.96297L6.08216 0.923828ZM11.1771 6.94419L10.9963 7.04398L14.4477 11.1185V10.8025L11.1771 6.94419Z" fill="#DC0032"/>
<path fill-rule="evenodd" clip-rule="evenodd" d="M5.93469 1.00708L5.75391 1.10686L10.0271 6.16264L10.2079 6.04622L5.93469 1.00708ZM11.0296 7.02745L10.8488 7.12723L14.4481 11.3681V11.0521L11.0296 7.02745Z" fill="#DC0032"/>
<path fill-rule="evenodd" clip-rule="evenodd" d="M5.78626 1.09009L5.60547 1.18987L9.87862 6.24565L10.0594 6.12923L5.78626 1.09009ZM10.8812 7.11046L10.7004 7.21024L14.4476 11.634V11.3014L10.8812 7.11046Z" fill="#DC0032"/>
<path fill-rule="evenodd" clip-rule="evenodd" d="M5.6388 1.17334L5.45801 1.27313L9.73116 6.3289L9.91195 6.21248L5.6388 1.17334ZM10.7502 7.19371L10.5694 7.29349L14.4481 11.8836V11.5676L10.7502 7.19371Z" fill="#DC0032"/>
<path fill-rule="evenodd" clip-rule="evenodd" d="M5.49117 1.2395L5.29395 1.33929L9.59997 6.41169L9.78076 6.29527L5.49117 1.2395ZM10.6025 7.2765L10.4217 7.37629L14.4483 12.1327V11.8167L10.6025 7.2765Z" fill="#DC0032"/>
<path fill-rule="evenodd" clip-rule="evenodd" d="M5.34273 1.32275L5.14551 1.42254L9.46797 6.51157C9.48441 6.47831 9.50084 6.46168 9.53371 6.44505L9.63233 6.37853L5.34273 1.32275L5.34273 1.32275ZM10.4541 7.35975L10.2733 7.45954L14.415 12.349C14.4314 12.2991 14.4478 12.2492 14.4478 12.1993V12.0663L10.4541 7.35975H10.4541Z" fill="#DC0032"/>
<path fill-rule="evenodd" clip-rule="evenodd" d="M5.19527 1.40601L4.99805 1.50579L9.41912 6.71124V6.64472C9.41912 6.59483 9.45199 6.5283 9.48487 6.47841L5.19527 1.40601ZM10.3066 7.443L10.1751 7.52616C10.1587 7.52616 10.1423 7.54279 10.1258 7.54279L14.3332 12.5154C14.3825 12.4489 14.4154 12.3824 14.4318 12.3158L10.3066 7.443Z" fill="#DC0032"/>
<path fill-rule="evenodd" clip-rule="evenodd" d="M5.04681 1.48926L4.84961 1.58904L9.41858 6.97744V6.64482L5.04681 1.48926ZM9.8459 7.45973L14.2176 12.6319C14.2669 12.5987 14.3163 12.5321 14.3656 12.4822L10.1582 7.52626C10.0924 7.55952 9.99381 7.55952 9.92807 7.52626L9.8459 7.45973Z" fill="#DC0032"/>
<path fill-rule="evenodd" clip-rule="evenodd" d="M4.89935 1.57227L4.70215 1.67205L14.0702 12.7149L14.2017 12.6484C14.2181 12.6318 14.2345 12.6151 14.251 12.5985L9.94496 7.52611H9.92852L9.55051 7.29328C9.51765 7.27665 9.50121 7.24338 9.46834 7.21012C9.43547 7.16023 9.43547 7.12697 9.41903 7.09371V6.91077L4.89935 1.57227Z" fill="#DC0032"/>
<path fill-rule="evenodd" clip-rule="evenodd" d="M4.75093 1.65552L4.55371 1.7553L13.9217 12.7982L14.1025 12.6984L4.75093 1.65552Z" fill="#DC0032"/>
<path fill-rule="evenodd" clip-rule="evenodd" d="M4.60347 1.72217L4.40625 1.82195L13.7907 12.8815L13.9715 12.7817L4.60347 1.72217Z" fill="#DC0032"/>
<path fill-rule="evenodd" clip-rule="evenodd" d="M4.45504 1.80518L4.25781 1.90496L13.6423 12.9645L13.8231 12.8647L4.45504 1.80518Z" fill="#DC0032"/>
<path fill-rule="evenodd" clip-rule="evenodd" d="M4.30758 1.88843L4.11035 1.98821L13.4948 13.0477L13.6756 12.9479L4.30758 1.88843Z" fill="#DC0032"/>
<path fill-rule="evenodd" clip-rule="evenodd" d="M4.1427 1.97144L3.96191 2.07122L13.3464 13.1474L13.5272 13.0309L4.1427 1.97144Z" fill="#DC0032"/>
<path fill-rule="evenodd" clip-rule="evenodd" d="M3.99524 2.05469L3.81445 2.15447L13.1989 13.2306L13.3797 13.1142L3.99524 2.05469Z" fill="#DC0032"/>
<path fill-rule="evenodd" clip-rule="evenodd" d="M3.8468 2.13794L3.66602 2.23772L13.0669 13.3139L13.2477 13.1974L3.8468 2.13794Z" fill="#DC0032"/>
<path fill-rule="evenodd" clip-rule="evenodd" d="M3.69934 2.20435L3.51855 2.30413L12.9195 13.3969L13.1003 13.2805L3.69934 2.20435Z" fill="#DC0032"/>
<path fill-rule="evenodd" clip-rule="evenodd" d="M3.55091 2.28735L3.37012 2.38714L12.771 13.4799L12.9518 13.3801L3.55091 2.28735Z" fill="#DC0032"/>
<path fill-rule="evenodd" clip-rule="evenodd" d="M3.40344 2.37061L3.22266 2.47039L7.79165 7.85877L7.93954 7.95855C8.00528 7.99182 8.07102 8.07497 8.07102 8.15813V8.17476L12.6236 13.5632L12.8044 13.4634L3.40344 2.37061Z" fill="#DC0032"/>
<path fill-rule="evenodd" clip-rule="evenodd" d="M3.25501 2.45386L3.07422 2.55364L7.36381 7.62605L7.90615 7.92539L3.25501 2.45386ZM8.05407 8.10833C8.05407 8.12496 8.07051 8.14159 8.07051 8.15822V8.44095L12.4751 13.6464L12.6559 13.5466L8.05407 8.10833Z" fill="#DC0032"/>
<path fill-rule="evenodd" clip-rule="evenodd" d="M3.10755 2.53687L2.92676 2.63665L6.93695 7.37645L7.47932 7.67581L3.10755 2.53687ZM8.07096 8.37429V8.69027L12.3441 13.7294L12.5249 13.6296L8.07096 8.37429Z" fill="#DC0032"/>
<path fill-rule="evenodd" clip-rule="evenodd" d="M2.95911 2.62012L2.77832 2.7199L6.52555 7.12708L7.05148 7.42644L2.95911 2.62012ZM8.07044 8.62385V8.95647L12.1957 13.8127L12.3765 13.7129L8.07044 8.62385Z" fill="#DC0032"/>
<path fill-rule="evenodd" clip-rule="evenodd" d="M2.81165 2.68652L2.63086 2.78631L6.09868 6.8775L6.62461 7.19349L2.81165 2.68652ZM8.0709 8.88982V9.20581L12.0482 13.8957L12.229 13.7959L8.0709 8.88982Z" fill="#DC0032"/>
<path fill-rule="evenodd" clip-rule="evenodd" d="M2.66418 2.76978L2.4834 2.86956L5.67182 6.62813L6.19775 6.94412L2.66418 2.76978ZM8.07135 9.13939V9.45537L11.9008 13.979L12.0815 13.8792L8.07135 9.13939Z" fill="#DC0032"/>
<path fill-rule="evenodd" clip-rule="evenodd" d="M2.51575 2.85303L2.33496 2.95281L5.24398 6.3954L5.76991 6.69475L2.51575 2.85303ZM8.07083 9.38895V9.72157L11.7523 14.0788L11.9331 13.9624L8.07083 9.38895Z" fill="#DC0032"/>
<path fill-rule="evenodd" clip-rule="evenodd" d="M2.36829 2.93604L2.1875 3.03582L4.81714 6.14579L5.34305 6.44514L2.36829 2.93604ZM8.07128 9.65489V9.97088L11.6213 14.1618L11.8021 14.0454L8.07128 9.65489Z" fill="#DC0032"/>
<path fill-rule="evenodd" clip-rule="evenodd" d="M2.21985 3.01929L2.03906 3.11907L4.3893 5.89642L4.93164 6.19578L2.21985 3.01929ZM8.07076 9.90446V10.2204L11.4728 14.2451L11.6536 14.1287L8.07076 9.90446Z" fill="#DC0032"/>
<path fill-rule="evenodd" clip-rule="evenodd" d="M2.07239 3.10229L1.8916 3.20208L3.96244 5.64681L4.5048 5.9628L2.07239 3.10229ZM6.3784 8.49068L6.80572 8.98961V8.80667C6.80572 8.77341 6.77285 8.72351 6.73998 8.70688L6.3784 8.49068ZM8.07122 10.1538V10.4864L11.3254 14.3281L11.5062 14.2117L8.07122 10.1538Z" fill="#DB0032"/>
<path fill-rule="evenodd" clip-rule="evenodd" d="M1.92493 3.16895L1.74414 3.26873L3.53557 5.39747L4.07794 5.71346L1.92493 3.16895ZM5.95154 8.24134L6.80618 9.2392V8.92321L6.49391 8.55733L5.95154 8.24134ZM8.07167 10.42V10.736L11.1779 14.4114L11.3587 14.3116L8.07167 10.42Z" fill="#DC0032"/>
<path fill-rule="evenodd" clip-rule="evenodd" d="M1.77649 3.2522L1.5957 3.35198L3.12417 5.16473L3.6501 5.46409L1.77649 3.2522ZM5.5237 8.0086L6.80566 9.50539V9.1894L6.06607 8.30796L5.5237 8.0086ZM8.07115 10.6696V10.9855L11.0295 14.4946L11.2103 14.3948L8.07115 10.6696Z" fill="#DC0032"/>
<path fill-rule="evenodd" clip-rule="evenodd" d="M1.62805 3.33521L1.44727 3.43499L2.69633 4.91512L3.22226 5.21448L1.62805 3.33521ZM5.1123 7.75901L6.80514 9.75471V9.43872L5.63823 8.05835L5.1123 7.75901ZM8.07063 10.9355V11.2515L10.8975 14.5776L11.0783 14.4779L8.07063 10.9355Z" fill="#DC0032"/>
<path fill-rule="evenodd" clip-rule="evenodd" d="M1.48059 3.41846L1.2998 3.51824L2.26948 4.66578L2.7954 4.96511L1.48059 3.41846ZM4.68546 7.50965L6.80559 10.0043V9.68828L5.21137 7.82561L4.68546 7.50965ZM8.07109 11.185V11.501L10.75 14.6609L10.9308 14.5611L8.07109 11.185Z" fill="#DC0032"/>
<path fill-rule="evenodd" clip-rule="evenodd" d="M1.33215 3.50146L1.15137 3.60125L1.84164 4.41617L2.36757 4.73216L1.33215 3.50146ZM4.25762 7.26004L6.80507 10.2702V9.95423L4.78355 7.57603L4.25762 7.26004ZM8.07057 11.4344V11.7504L10.6016 14.7439L10.7824 14.6441L8.07057 11.4344Z" fill="#DC0032"/>
<path fill-rule="evenodd" clip-rule="evenodd" d="M1.18469 3.58472L1.00391 3.6845L1.41479 4.1668L1.95715 4.48279L1.18469 3.58472ZM3.83076 7.0273L6.80552 10.5198V10.2038L4.35669 7.32666L3.83076 7.0273ZM8.07102 11.7006V12.0165L10.4541 14.8272L10.6349 14.7274L8.07102 11.7006Z" fill="#DC0032"/>
<path fill-rule="evenodd" clip-rule="evenodd" d="M1.03707 3.65112L0.839844 3.75091L0.987759 3.93385L1.53012 4.23321L1.03707 3.65112ZM3.40373 6.77772L6.80582 10.7857V10.4531L3.9461 7.07708L3.40373 6.77772ZM8.07131 11.9499V12.2659L10.3065 14.9268L10.4873 14.8104L8.07131 11.9499Z" fill="#DC0032"/>
<path fill-rule="evenodd" clip-rule="evenodd" d="M0.889459 3.73438L0.774414 3.8009L1.10312 3.98384L0.889459 3.73438V3.73438ZM2.97672 6.52835L6.80613 11.0353V10.7193L3.51909 6.84434L2.97672 6.52835ZM8.07163 12.1995V12.5321L10.1753 15.0101L10.3561 14.8937L8.07163 12.1995Z" fill="#DC0032"/>
<path fill-rule="evenodd" clip-rule="evenodd" d="M2.56445 6.27905L6.80473 11.2849V10.9689L3.09038 6.59504L2.56445 6.27905ZM8.07023 12.4657V12.7817L10.026 15.0934L10.2068 14.977L8.07023 12.4657Z" fill="#DC0032"/>
<path fill-rule="evenodd" clip-rule="evenodd" d="M2.1377 6.04614L6.80529 11.5509V11.2183L2.66362 6.3455L2.1377 6.04614ZM8.07078 12.7151V13.0311L9.87867 15.1765L10.0595 15.0601L8.07078 12.7151Z" fill="#DC0032"/>
<path fill-rule="evenodd" clip-rule="evenodd" d="M1.71094 5.79663L6.80584 11.8004V11.4844L2.23686 6.09599L1.71094 5.79663ZM8.07134 12.9645V13.2971L9.73131 15.2596L9.91209 15.1598L8.07134 12.9645Z" fill="#DC0032"/>
<path fill-rule="evenodd" clip-rule="evenodd" d="M1.2832 5.54712L6.80543 12.0498V11.7338L1.80913 5.86311L1.2832 5.54712ZM8.07092 13.2306V13.5466L9.58297 15.3427L9.76376 15.2429L8.07092 13.2306Z" fill="#DB0032"/>
<path fill-rule="evenodd" clip-rule="evenodd" d="M0.855469 5.29761L6.80501 12.3158V11.9998L1.38139 5.6136L0.855469 5.29761ZM8.0705 13.48V13.796L9.45107 15.4258L9.63186 15.326L8.0705 13.48Z" fill="#DA0032"/>
<path fill-rule="evenodd" clip-rule="evenodd" d="M0.428711 5.06494L6.80556 12.5655V12.2495L0.971071 5.3643L0.428711 5.06494ZM8.07106 13.7296V14.0622L9.30371 15.5091L9.48449 15.4093L8.07106 13.7296Z" fill="#D90032"/>
<path fill-rule="evenodd" clip-rule="evenodd" d="M0.412109 5.0481V5.28093L6.8054 12.8147V12.4987L0.543591 5.11462L0.412109 5.0481ZM8.07089 13.9955V14.1951C8.07089 14.2283 8.05446 14.2616 8.03802 14.2782L9.15562 15.5921L9.33641 15.4923L8.07089 13.9955Z" fill="#D80032"/>
<path fill-rule="evenodd" clip-rule="evenodd" d="M0.412109 5.2146V5.54722L6.8054 13.081V12.765L0.412109 5.2146ZM8.05446 14.2451C8.03802 14.3117 7.98872 14.3782 7.93941 14.3948L7.92298 14.4115L9.0077 15.6754L9.18849 15.5756L8.05446 14.2451L8.05446 14.2451Z" fill="#D70032"/>
<path fill-rule="evenodd" clip-rule="evenodd" d="M0.412109 5.48047V5.79646L6.8054 13.3302V13.0142L0.412109 5.48047ZM7.95584 14.378C7.95584 14.3946 7.95584 14.3946 7.93941 14.3946L7.77508 14.4944L8.85978 15.7583L9.04057 15.6585L7.95584 14.378L7.95584 14.378Z" fill="#D60032"/>
<path fill-rule="evenodd" clip-rule="evenodd" d="M0.412109 5.72998V6.04597L6.8054 13.5797V13.2638L0.412109 5.72998ZM7.82436 14.4612L7.62716 14.5776L8.7283 15.8582L8.90909 15.7417L7.82436 14.4612Z" fill="#D50032"/>
<path fill-rule="evenodd" clip-rule="evenodd" d="M0.412109 5.99609V6.31208L6.8054 13.8458V13.5299L0.412109 5.99609ZM7.67647 14.5443L7.56142 14.6109C7.52855 14.6275 7.49568 14.6275 7.46281 14.6275L8.58039 15.9413L8.76118 15.8249L7.67647 14.5443V14.5443Z" fill="#D40032"/>
<path fill-rule="evenodd" clip-rule="evenodd" d="M0.412109 6.24561V6.56159L6.8054 14.0953V13.7794L0.412109 6.24561ZM7.16697 14.5444L8.43247 16.0245L8.61326 15.9081L7.51212 14.6275C7.49568 14.6275 7.46281 14.6442 7.44637 14.6442H7.42994C7.38063 14.6442 7.34776 14.6275 7.31489 14.6109L7.16697 14.5444L7.16697 14.5444Z" fill="#D30032"/>
<path fill-rule="evenodd" clip-rule="evenodd" d="M0.412109 6.49512V6.82774L8.28455 16.1077L8.46534 15.9913L7.28202 14.5943L6.92044 14.3948C6.8547 14.3615 6.8054 14.2783 6.8054 14.1952V14.0289L0.412109 6.49512Z" fill="#D20032"/>
<path fill-rule="evenodd" clip-rule="evenodd" d="M0.412109 6.76123V7.07722L8.13663 16.1909L8.31742 16.0911L0.412109 6.76123Z" fill="#D10032"/>
<path fill-rule="evenodd" clip-rule="evenodd" d="M0.412109 7.0105V7.32649L7.98871 16.2739L8.1695 16.1741L0.412109 7.0105Z" fill="#D00032"/>
<path fill-rule="evenodd" clip-rule="evenodd" d="M0.412109 7.26001V7.59263L7.85723 16.3571L8.03802 16.2573L0.412109 7.26001Z" fill="#CF0032"/>
<path fill-rule="evenodd" clip-rule="evenodd" d="M0.412109 7.52612V7.84209L7.70934 16.4402L7.8901 16.3405L0.412109 7.52612Z" fill="#CE0032"/>
<path fill-rule="evenodd" clip-rule="evenodd" d="M0.412109 7.77563V8.09162L7.54499 16.5068C7.59429 16.4902 7.6436 16.4736 7.6929 16.4569L7.74221 16.4237L0.412109 7.77563Z" fill="#CD0032"/>
<path fill-rule="evenodd" clip-rule="evenodd" d="M0.412109 8.0249V8.35752L7.33133 16.5066C7.3642 16.5066 7.39707 16.5066 7.42994 16.5066C7.47924 16.5066 7.52855 16.5066 7.57786 16.49L0.412109 8.0249Z" fill="#CC0032"/>
<path fill-rule="evenodd" clip-rule="evenodd" d="M0.412109 8.29102V8.607L6.95331 16.3237L7.18341 16.4568C7.23271 16.49 7.31489 16.5067 7.38063 16.5067L0.412109 8.29102Z" fill="#CB0032"/>
<path fill-rule="evenodd" clip-rule="evenodd" d="M0.412109 8.54077V8.85676L6.526 16.0745L7.06836 16.3905L0.412109 8.54077Z" fill="#CA0032"/>
<path fill-rule="evenodd" clip-rule="evenodd" d="M0.412109 8.80688V9.12287L6.09868 15.8251L6.64104 16.1411L0.412109 8.80688Z" fill="#C90032"/>
<path fill-rule="evenodd" clip-rule="evenodd" d="M0.412109 9.05615V9.37214L5.67136 15.5754L6.19729 15.8914L0.412109 9.05615Z" fill="#C80033"/>
<path fill-rule="evenodd" clip-rule="evenodd" d="M0.412109 9.30566V9.62165L5.24404 15.326L5.76997 15.642L0.412109 9.30566Z" fill="#C70033"/>
<path fill-rule="evenodd" clip-rule="evenodd" d="M0.412109 9.57178V9.88777L4.80031 15.0599L5.34265 15.3759L0.412109 9.57178Z" fill="#C60033"/>
<path fill-rule="evenodd" clip-rule="evenodd" d="M0.412109 9.82129V10.1373L4.37299 14.8105L4.91534 15.1265L0.412109 9.82129Z" fill="#C50033"/>
<path fill-rule="evenodd" clip-rule="evenodd" d="M0.412109 10.0706V10.3865L3.94568 14.5609L4.48804 14.8769L0.412109 10.0706Z" fill="#C40033"/>
<path fill-rule="evenodd" clip-rule="evenodd" d="M0.412109 10.3367V10.6527L3.51836 14.3114L4.06072 14.6274L0.412109 10.3367Z" fill="#C30033"/>
<path fill-rule="evenodd" clip-rule="evenodd" d="M0.412109 10.5864V10.9024L3.09104 14.0622L3.63341 14.3782L0.412109 10.5864Z" fill="#C20033"/>
<path fill-rule="evenodd" clip-rule="evenodd" d="M0.412109 10.8357V11.1683L2.66372 13.8126L3.18965 14.1286L0.412109 10.8357Z" fill="#C10033"/>
<path fill-rule="evenodd" clip-rule="evenodd" d="M0.412109 11.1018V11.4178L2.21998 13.5632L2.76233 13.8792L0.412109 11.1018Z" fill="#C00033"/>
<path fill-rule="evenodd" clip-rule="evenodd" d="M0.412109 11.3513V11.6673L1.79266 13.3138L2.33503 13.6131L0.412109 11.3513Z" fill="#BF0033"/>
<path fill-rule="evenodd" clip-rule="evenodd" d="M0.412109 11.6008V11.9334L1.36535 13.0477L1.90771 13.3637L0.412109 11.6008Z" fill="#BE0033"/>
<path fill-rule="evenodd" clip-rule="evenodd" d="M0.412109 11.8669V12.1829L0.938034 12.7983L1.48039 13.1143L0.412109 11.8669Z" fill="#BD0033"/>
<path fill-rule="evenodd" clip-rule="evenodd" d="M0.412109 12.1162V12.1994C0.412109 12.3657 0.527156 12.5652 0.658637 12.6484L1.05308 12.8646L0.412109 12.1162Z" fill="#BC0033"/>
<path fill-rule="evenodd" clip-rule="evenodd" d="M0.510742 12.4988C0.543613 12.532 0.560048 12.5653 0.592918 12.5819L0.510742 12.4988Z" fill="#BB0033"/>
</g>
<defs>
<clipPath id="clip0">
<rect x="0.412109" y="0.275146" width="38.8235" height="16.5" fill="white"/>
</clipPath>
</defs>
</svg>
